<svg xmlns="http://www.w3.org/2000/svg" width="1400" height="283" viewBox="0 0 1400 283">
  <g id="그룹_1001" data-name="그룹 1001" transform="translate(-390 -301)">
    <path id="패스_760" data-name="패스 760" d="M0,0H1400" transform="translate(390 571.61)" fill="none" stroke="#e4e4e4" stroke-width="4"/>
    <g id="그룹_41" data-name="그룹 41" transform="translate(579.987 371.17)">
      <g id="그룹_14" data-name="그룹 14" transform="translate(0 0)">
        <g id="freepik--Character--inject-13" transform="translate(0)">
          <g id="그룹_17" data-name="그룹 17">
            <path id="패스_440" data-name="패스 440" d="M263.356,144.751c-4.818-.32-9.671-.7-14.481-1.107s-9.671-.865-14.325-1.133h-.432a1.838,1.838,0,0,0-.363,0,8.188,8.188,0,0,0-1.073.26,16.43,16.43,0,0,0-2.647,1.159,50.417,50.417,0,0,0-5.623,3.625c-1.877,1.358-3.72,2.829-5.554,4.325s-3.668,3.088-5.441,4.619l-.078.069a2.6,2.6,0,0,1-3.754-3.417,82.182,82.182,0,0,1,9.827-11.531,47.012,47.012,0,0,1,6.124-5.052,24.491,24.491,0,0,1,3.841-2.171,14.326,14.326,0,0,1,2.414-.865,13.657,13.657,0,0,1,1.436-.268c.26,0,.519-.052.8-.061h.623c2.6-.069,5.026-.052,7.5,0s4.922.13,7.37.251c4.9.225,9.775.562,14.706,1.029a5.142,5.142,0,1,1-.822,10.251Z" transform="translate(-132.51 -90.75)" fill="#b55b52"/>
            <path id="패스_441" data-name="패스 441" d="M213.345,158.52l-1.73,4.429a4.325,4.325,0,0,1-5.865,2.31h0a4.325,4.325,0,0,1-.562-7.457,21.4,21.4,0,0,1,4.325-2.362Z" transform="translate(-131.711 -93.695)" fill="#b55b52"/>
            <path id="패스_442" data-name="패스 442" d="M269.149,140.385a129.133,129.133,0,0,0-19.371,41.455l-38.2-5.261c1.185-6.92,7.785-28.365,19.983-43.8a14.827,14.827,0,0,1,11.644-5.571c1.817,0,3.806.043,5.753.182a137.837,137.837,0,0,1,15.9,1.938h.164a7.024,7.024,0,0,1,4.126,11.055Z" transform="translate(-132.827 -89.939)" fill="#263238"/>
            <path id="패스_443" data-name="패스 443" d="M246.928,142.642c-2.413,4.161-7.2,5.891-10.692,3.867s-4.325-7.033-1.946-11.194,7.2-5.891,10.683-3.867S249.341,138.481,246.928,142.642Z" transform="translate(-135.709 -90.421)" fill="#b55b52"/>
            <path id="패스_444" data-name="패스 444" d="M239.367,147.722a6.756,6.756,0,0,1-3.417-.908c-3.685-2.137-4.637-7.422-2.1-11.782s7.586-6.168,11.246-4.022a7.128,7.128,0,0,1,3.4,5.061,9.939,9.939,0,0,1-1.289,6.687h0a10.025,10.025,0,0,1-5.19,4.446A7.914,7.914,0,0,1,239.367,147.722Zm2.344-16.756a8.555,8.555,0,0,0-7.119,4.5c-2.284,3.945-1.479,8.7,1.791,10.605a6.341,6.341,0,0,0,5.389.355,9.187,9.187,0,0,0,4.715-4.066h0a9.144,9.144,0,0,0,1.185-6.107,6.306,6.306,0,0,0-2.984-4.5,5.848,5.848,0,0,0-2.976-.787Z" transform="translate(-135.641 -90.355)" fill="#fff"/>
            <path id="패스_445" data-name="패스 445" d="M240.67,143.56c0,2.95,2.95,11.125,8.071,17.18,3.339,3.953,10.164,2.085,10.164,2.085Z" transform="translate(-136.753 -92.122)" opacity="0.2"/>
            <path id="패스_446" data-name="패스 446" d="M270.254,131.633a2.6,2.6,0,0,0-1.393-2.1,7.633,7.633,0,0,1-1.107-.675c-4.066-.649-9.308-1.15-13.175-1.436h-.64a2.535,2.535,0,0,0-.424,2.932,20.882,20.882,0,0,0,11.246,9.914,2.527,2.527,0,0,0,.978.19,2.465,2.465,0,0,0,1.142-.268C269.389,138.9,270.557,135.949,270.254,131.633Z" transform="translate(-138.448 -90.005)" fill="#fff"/>
            <path id="패스_447" data-name="패스 447" d="M258.41,108.64c.13,4.87-.346,13.382-3.711,16.817a1.73,1.73,0,0,0-.277,1.938A19.9,19.9,0,0,0,265.2,136.91a1.73,1.73,0,0,0,1.41-.052c2.8-1.4,3.105-5.043,2.924-7.69a1.73,1.73,0,0,0-.934-1.393c-4.481-2.3-3.46-5.649-1.886-9.221Z" transform="translate(-138.585 -87.617)" fill="#b55b52"/>
            <path id="패스_448" data-name="패스 448" d="M262.909,113.33h0a7.863,7.863,0,0,0-.58,2.725c-.13,2,2.4,4.836,4.446,5.995a18.837,18.837,0,0,1,1.047-2.855Z" transform="translate(-139.675 -88.25)" opacity="0.2"/>
            <path id="패스_449" data-name="패스 449" d="M279.947,96.994c-1.211.528-2.768-.346-3.46-1.964s-.294-3.356.926-3.884,2.768.346,3.46,1.964S281.158,96.457,279.947,96.994Z" transform="translate(-141.541 -85.235)" fill="#263238"/>
            <path id="패스_450" data-name="패스 450" d="M259.743,98.339c-.735,6.92-1.523,10.977,1.358,15.1,4.325,6.185,13.356,4.464,16.151-2.128,2.517-5.934,3.3-16.3-2.976-20.173a9.516,9.516,0,0,0-14.533,7.206Z" transform="translate(-139.234 -85.058)" fill="#b55b52"/>
            <path id="패스_451" data-name="패스 451" d="M277.214,88.743a3.46,3.46,0,0,0-2.8-1.341,3.946,3.946,0,0,0-.407-1c-.865-1.531-2.517-2.232-3.668-1.574a2.007,2.007,0,0,0-.908,1.2,3.988,3.988,0,0,0-.709-.779c-1.35-1.133-3.14-1.22-3.988-.2a1.842,1.842,0,0,0-.329.649,3.841,3.841,0,0,0-1.315-.571c-1.73-.389-3.365.407-3.668,1.73h-.069c-1.652-.614-3.382-.061-3.875,1.246a2.145,2.145,0,0,0,0,1.358,2.483,2.483,0,0,0-1.894,1.176,2.6,2.6,0,0,0,.277,2.924,2.283,2.283,0,0,0-.8,1.073,2.957,2.957,0,0,0,2.18,3.529,3.261,3.261,0,0,0,1.644,2.6c.069.415.138.865.216,1.246,5.623,3.365,7.353-8.746,7.353-8.746s7.016,1.869,12.785.433a3.574,3.574,0,0,0-.329-.7,1.851,1.851,0,0,0,.467-.277C278.425,91.883,278.338,90.1,277.214,88.743Z" transform="translate(-138.41 -84.337)" fill="#263238"/>
            <path id="패스_452" data-name="패스 452" d="M254.738,107.178a6.6,6.6,0,0,0,3.6,3.573c2.163.865,3.46-.995,3.114-3.166-.355-1.955-1.894-4.766-4.17-4.715S253.925,105.18,254.738,107.178Z" transform="translate(-138.615 -86.838)" fill="#b55b52"/>
            <path id="패스_453" data-name="패스 453" d="M7.591,0S46.469.182,59.933,14.516c14.01,14.913,39.3,42.015,39.3,42.015L96.875,61.54s-30.647-14.758-43.9-30.026C44.3,21.514,0,21.739,0,21.739Z" transform="translate(116.672 89.892) rotate(42)" fill="#b55b52"/>
            <path id="패스_454" data-name="패스 454" d="M7.556,1.219.359,4.506a.614.614,0,0,0-.346.683l1.332,6.272a1.038,1.038,0,0,0,1.462.709C5.3,10.986,6.449,10.276,9.615,8.84c1.946-.865,8.884-3.806,11.566-5.035S23.015-.243,21.8.017c-5.433,1.176-10.8,1.825-13.028,1.125A1.73,1.73,0,0,0,7.556,1.219Z" transform="matrix(0.883, 0.469, -0.469, 0.883, 146.54, 191.218)" fill="#ff615b"/>
            <path id="패스_455" data-name="패스 455" d="M39.529,2.5c2.926.462,6.925,3.3,9.653,4.456C48.144,10.779,42.851,24.654,40.9,28,32.3,26.8,8.6,26.833,3.319,21.609-4.605,13.771,4.149,0,4.149,0Z" transform="translate(77.864 87.267) rotate(3)" fill="#ff615b"/>
            <path id="패스_456" data-name="패스 456" d="M17.63,1.213C14.169-3.112,1.194,5.158,0,9.915a9.032,9.032,0,0,0,.675.744c2.993,2.958,11.9,4.23,20.631,5C21.367,9.526,20.173,4.336,17.63,1.213Z" transform="translate(79.931 98.357) rotate(3)" opacity="0.2"/>
            <path id="패스_457" data-name="패스 457" d="M7.024,0a10.7,10.7,0,0,1,3.547,1.3c-1.047,2.6-6.159,20.311-6.505,23.97C2.232,25.951.017,24.775,0,24.861S2.725,9.048,7.024,0Z" transform="translate(118.744 94.03) rotate(14)" fill="#263238"/>
            <path id="패스_458" data-name="패스 458" d="M224.91,193.682s-18.322,43.633-33.927,57.958C174.4,266.969,138.5,219.21,138.5,219.21l5.32-2.907s24.221,18.33,34.81,20.761c13.451-12.924,22.491-47.214,22.491-47.214Z" transform="translate(-122.965 -98.093)" fill="#b55b52"/>
            <path id="패스_459" data-name="패스 459" d="M237.814,188.047s-10.938,25.307-14.926,32.115c-3.209-1.471-18.581-7.137-22.448-7,.052-4.187,9.637-28.884,9.637-28.884Z" transform="translate(-131.324 -97.442)" fill="#ff615b"/>
            <path id="패스_460" data-name="패스 460" d="M223.717,222.941a10.8,10.8,0,0,1-1.453,3.46c-2.5-1.159-20.026-7.042-23.659-7.543-.606-1.86.666-4.031.58-4.048S214.867,218.244,223.717,222.941Z" transform="translate(-131.054 -101.506)" fill="#263238"/>
            <path id="패스_461" data-name="패스 461" d="M135.921,223.2l7.31-3.019a.614.614,0,0,0,.372-.675l-1.1-6.315a1.038,1.038,0,0,0-1.436-.761c-2.535,1.09-3.711,1.73-6.92,3.08-1.981.813-9.014,3.46-11.747,4.6s-1.972,3.979-.753,3.763c5.467-.969,10.856-1.427,13.054-.64A1.73,1.73,0,0,0,135.921,223.2Z" transform="translate(-120.541 -101.181)" fill="#ff615b"/>
            <path id="패스_462" data-name="패스 462" d="M271.536,103.8c-.1.554.121,1.064.484,1.125s.744-.346.865-.865-.13-1.064-.493-1.125S271.623,103.242,271.536,103.8Z" transform="translate(-140.915 -86.847)" fill="#263238"/>
            <path id="패스_463" data-name="패스 463" d="M278.847,105.034c-.1.554.13,1.064.493,1.125s.744-.346.865-.865-.13-1.064-.493-1.125S278.976,104.472,278.847,105.034Z" transform="translate(-141.902 -87.013)" fill="#263238"/>
            <path id="패스_464" data-name="패스 464" d="M276.331,105.1a20.307,20.307,0,0,0,1.877,5.234,3.3,3.3,0,0,1-2.768.061Z" transform="translate(-141.445 -87.139)" fill="#a02724"/>
            <path id="패스_465" data-name="패스 465" d="M272.717,112.257a.164.164,0,0,0,.173-.138.156.156,0,0,0-.138-.19,4.5,4.5,0,0,1-3.322-2.344.169.169,0,0,0-.311.13,4.792,4.792,0,0,0,3.581,2.543Z" transform="translate(-140.591 -87.731)" fill="#263238"/>
            <path id="패스_466" data-name="패스 466" d="M270.337,101.342a.32.32,0,0,0,.251-.052,2.656,2.656,0,0,1,2.379-.441.32.32,0,0,0,.424-.19.329.329,0,0,0-.19-.433,3.3,3.3,0,0,0-3,.519.329.329,0,0,0-.069.467A.32.32,0,0,0,270.337,101.342Z" transform="translate(-140.719 -86.46)" fill="#263238"/>
            <path id="패스_467" data-name="패스 467" d="M282.549,103.484a.234.234,0,0,0,.1,0,.338.338,0,0,0,.173-.441,3.357,3.357,0,0,0-2.327-1.964.346.346,0,0,0-.389.277.337.337,0,0,0,.277.381,2.673,2.673,0,0,1,1.825,1.574A.338.338,0,0,0,282.549,103.484Z" transform="translate(-142.075 -86.596)" fill="#263238"/>
            <path id="패스_468" data-name="패스 468" d="M246.572,133.831c3.46,4.611,7.016,9.291,10.6,13.841,1.8,2.258,3.616,4.49,5.458,6.618.917,1.055,1.86,2.085,2.785,3.036a22.189,22.189,0,0,0,2.6,2.353,8.076,8.076,0,0,0,1.306.744c.562.268,1.168.536,1.791.8,1.254.536,2.6,1.038,3.919,1.523,2.7.96,5.45,1.92,8.227,2.811l16.765,5.467h0a2.6,2.6,0,0,1-1.116,4.974c-5.943-.753-11.8-1.73-17.664-2.933-2.933-.631-5.865-1.272-8.815-2.076-1.471-.4-2.95-.865-4.472-1.315-.761-.242-1.522-.528-2.327-.865a17.137,17.137,0,0,1-2.6-1.28,28.594,28.594,0,0,1-4.239-3.287c-1.2-1.09-2.3-2.2-3.382-3.313-2.154-2.232-4.152-4.507-6.1-6.808-3.9-4.628-7.535-9.325-11.047-14.247a5.138,5.138,0,0,1,8.287-6.055Z" transform="translate(-136.314 -90.566)" fill="#b55b52"/>
            <path id="패스_469" data-name="패스 469" d="M307.618,176.644l4.637-1.09a4.325,4.325,0,0,1,5.19,3.512h0a4.325,4.325,0,0,1-5.8,4.706,21.269,21.269,0,0,1-4.429-2.241Z" transform="translate(-145.734 -96.331)" fill="#b55b52"/>
          </g>
        </g>
      </g>
    </g>
    <g id="그룹_54" data-name="그룹 54" transform="translate(478 380.411)">
      <g id="그룹_19" data-name="그룹 19" transform="translate(0 0)">
        <path id="패스_19" data-name="패스 19" d="M296.922,144.3l-57.322.248a10.7,10.7,0,0,1-4.151-1.109c-1.991-.94-6.211-3.512-7.5-4.3a1.526,1.526,0,0,0-1.088-.217c-.238.048-.423.158-.322.4.137.322,3.7,3.391,3.7,3.391l-6.337-2a1.262,1.262,0,0,0-1.056.121c-.143.09-.248.211-.222.359a29.193,29.193,0,0,0,3.834,2.07l-4.811-.824a.85.85,0,0,0-1,.66,1.2,1.2,0,0,0,0,.137c0,.449,6.866,2.641,6.866,2.641h-6.337a.951.951,0,0,0-.85,1.368c.359.713,9.9.961,9.992,2.028s-2.715,1.289-3.665,2.73a1.257,1.257,0,0,0,.6,2.017c.972-1.162,4.7-2.112,4.7-2.112l5.809.306h0l54.275,7.732,8.36-5.313,3.216-5.809Z" transform="translate(-170.543 -111.333)" fill="#ffbe9d"/>
        <path id="패스_20" data-name="패스 20" d="M268.885,148.77l-58.531,11.619a11.033,11.033,0,0,1-4.463-.306c-2.223-.565-7.04-2.361-8.519-2.915a1.547,1.547,0,0,0-1.151,0c-.232.1-.4.243-.248.47s4.463,2.725,4.463,2.725l-6.866-.782a1.341,1.341,0,0,0-1.056.327.412.412,0,0,0-.158.417c.1.269,4.331,1.352,4.331,1.352l-5.081.116a.877.877,0,0,0-.887.871,1.057,1.057,0,0,0,0,.137c.116.454,7.568,1.352,7.568,1.352l-6.459,1.252a.988.988,0,0,0-.6,1.584c.528.655,10.3-.982,10.615.09s-2.519,1.854-3.206,3.517a1.315,1.315,0,0,0,1.009,1.949c.766-1.384,4.389-3.09,4.389-3.09l5.978-.834h0l56.995-2.862,7.494-7.087,2.112-6.6Z" transform="translate(-156.617 -115.992)" fill="#ffbe9d"/>
        <path id="패스_21" data-name="패스 21" d="M265.4,156.469a3.218,3.218,0,0,1-.38.1l-1.1.248-4.04.845L246.517,160.3l-13.367,2.641-4.045.813-1.1.211a2.543,2.543,0,0,1-.391.058,1.969,1.969,0,0,1,.38-.111l1.088-.264c.951-.222,2.329-.528,4.035-.9,3.406-.739,8.128-1.711,13.351-2.736l13.383-2.567,4.056-.761,1.109-.2a1.775,1.775,0,0,1,.391-.026Z" transform="translate(-174.027 -119.624)" fill="#eb996e"/>
        <path id="패스_22" data-name="패스 22" d="M367.208,98.42a2.931,2.931,0,0,1-1.965,2.329c-.581.185-1.215.18-1.785.391s-1.109.766-.982,1.363c.09.449.5.745.84,1.056s.644.787.444,1.2-.871.486-1.215.856a1.173,1.173,0,0,0,.074,1.458,5.116,5.116,0,0,0,1.236.988,2.06,2.06,0,0,1,.94,1.231" transform="translate(-237.597 -92.233)" fill="#263238"/>
        <path id="패스_23" data-name="패스 23" d="M390.1,102.2c1.584-3.264.47-7.362-1.922-10.082s-5.857-4.278-9.332-5.281c-.5-.148-1.12-.254-1.473.127a.988.988,0,0,0,.079,1.257,2.841,2.841,0,0,0,1.162.7,10.879,10.879,0,0,0-4.526-1.267,2.863,2.863,0,0,0-1.584.327,1.31,1.31,0,0,0-.639,1.4.866.866,0,0,0,1.31.459,6.644,6.644,0,0,0-4.309.977,2.792,2.792,0,0,0-1.532,2.641,16.143,16.143,0,0,0,.782,1.722c.359,1.093-.19,2.255-.618,3.332a10.372,10.372,0,0,0-.776,5.281,6.126,6.126,0,0,0,2.757,4.341" transform="translate(-239.638 -86.705)" fill="#263238"/>
        <path id="패스_24" data-name="패스 24" d="M380.412,95.772l-.528-.185a10.351,10.351,0,0,0-13,7.156l-6.612,21.9,11.56,9.781,3.538-9.184s5.551,1.125,7.557-4.1c.966-2.524,2.54-7.885,3.908-12.754A10.42,10.42,0,0,0,380.412,95.772Z" transform="translate(-236.627 -90.684)" fill="#ffbe9d"/>
        <path id="패스_25" data-name="패스 25" d="M383.461,148a13,13,0,0,1-6.121-4.473s.217,4.373,5.63,5.836Z" transform="translate(-244.682 -113.52)" fill="#eb996e"/>
        <path id="패스_26" data-name="패스 26" d="M378.811,98.188c-.422-.951-.951-3.016-1.679-3.76s-1.917-.528-2.926-.232a3.38,3.38,0,0,0-2.26,2.112c-1.41,3.781-1.584,7.357-2.667,11.091a1.421,1.421,0,0,0-.069.755c.19.634.887.861,1.542.961,1.611.248,2.445-.924,3.216-2.334a16.783,16.783,0,0,0,.581-2.641,7.145,7.145,0,0,1,4.008-5.809Z" transform="translate(-240.834 -90.11)" fill="#263238"/>
        <path id="패스_27" data-name="패스 27" d="M370.352,114.563c-.074-.074-3.211-2.4-4.42,1.231s2.677,4.1,2.72,3.993S370.352,114.563,370.352,114.563Z" transform="translate(-239.188 -99.472)" fill="#ffbe9d"/>
        <path id="패스_28" data-name="패스 28" d="M368.924,119.079a.8.8,0,0,0-.2.037.681.681,0,0,1-.475-.148,1.653,1.653,0,0,1-.254-1.648,2.17,2.17,0,0,1,.481-.845.766.766,0,0,1,.634-.327.338.338,0,0,1,.317.3c0,.116-.032.18,0,.19s.1-.032.121-.19a.433.433,0,0,0-.069-.275.528.528,0,0,0-.317-.211.935.935,0,0,0-.85.343,2.291,2.291,0,0,0-.56.935,1.745,1.745,0,0,0,.4,1.88.734.734,0,0,0,.613.1C368.893,119.148,368.935,119.09,368.924,119.079Z" transform="translate(-240.111 -100.508)" fill="#eb996e"/>
        <path id="패스_29" data-name="패스 29" d="M383.526,97.665a4.4,4.4,0,0,1,4.869.132c1.225.724,2.271,1.753,3.533,2.419a3.309,3.309,0,0,0,5.355-2.751,7.716,7.716,0,0,0-1.8-5.651c-.349-.4-.877-.8-1.363-.586-.6.264-.528,1.135-.327,1.764,0,0-6.1-2.3-9.844-1.056S383.526,97.665,383.526,97.665Z" transform="translate(-246.96 -88.811)" fill="#263238"/>
        <path id="패스_30" data-name="패스 30" d="M389.215,86.78c.037,0,.069.259.254.7a5.607,5.607,0,0,0,1.156,1.637,9.1,9.1,0,0,0,2.424,1.722,7.054,7.054,0,0,0,1.658.57c.6.137,1.241.238,1.891.422a4.362,4.362,0,0,1,1.759.9,3.945,3.945,0,0,1,1.056,1.521,3.437,3.437,0,0,1,.206,1.658,3.169,3.169,0,0,1-2.2,2.583,2.235,2.235,0,0,1-.56.085h-.2a3.715,3.715,0,0,0,.718-.19,3.1,3.1,0,0,0,1.516-1.231,2.915,2.915,0,0,0,.459-1.262,3.168,3.168,0,0,0-.217-1.521,3.654,3.654,0,0,0-.988-1.389,4.072,4.072,0,0,0-1.658-.85c-.623-.18-1.257-.28-1.869-.422a7.256,7.256,0,0,1-1.7-.6,8.787,8.787,0,0,1-2.461-1.833,5.164,5.164,0,0,1-1.109-1.748,3.17,3.17,0,0,1-.127-.528C389.21,86.849,389.2,86.78,389.215,86.78Z" transform="translate(-250.283 -86.74)" fill="#455a64"/>
        <path id="패스_31" data-name="패스 31" d="M381.545,88.79c.032,0,.09.269.291.729a5.45,5.45,0,0,0,1.246,1.679,7.606,7.606,0,0,0,2.688,1.547,26.29,26.29,0,0,0,3.755.908,14.717,14.717,0,0,1,3.766,1.109,2.6,2.6,0,0,1,1.225,1.262,2.482,2.482,0,0,1,.074,1.532,3,3,0,0,1-1.32,1.711,2.832,2.832,0,0,1-.528.275c-.127.053-.2.069-.2.058s.248-.137.65-.433a3.005,3.005,0,0,0,1.167-1.664,2.176,2.176,0,0,0-.1-1.373,2.339,2.339,0,0,0-1.114-1.109,15.277,15.277,0,0,0-3.7-1.056,24.2,24.2,0,0,1-3.8-.935,7.605,7.605,0,0,1-2.746-1.664,5.086,5.086,0,0,1-1.2-1.8,3.137,3.137,0,0,1-.158-.57A.739.739,0,0,1,381.545,88.79Z" transform="translate(-246.663 -87.689)" fill="#455a64"/>
        <path id="패스_32" data-name="패스 32" d="M403.467,124.95c-.137.074-.6-.607-1.479-.919s-1.679-.1-1.738-.243.143-.216.5-.322a2.366,2.366,0,0,1,1.442.063,2.266,2.266,0,0,1,1.125.861C403.51,124.7,403.536,124.918,403.467,124.95Z" transform="translate(-255.488 -104.012)" fill="#263238"/>
        <path id="패스_33" data-name="패스 33" d="M387.553,120.069c-.143.069-.6-.607-1.479-.919s-1.685-.1-1.738-.243c-.032-.063.137-.217.5-.322a2.382,2.382,0,0,1,1.436.058,2.318,2.318,0,0,1,1.13.866C387.6,119.821,387.616,120.037,387.553,120.069Z" transform="translate(-247.982 -101.709)" fill="#263238"/>
        <path id="패스_34" data-name="패스 34" d="M392,126.393a6.073,6.073,0,0,1,1.516.248c.238.058.465.09.555-.053a1.2,1.2,0,0,0,.09-.718c0-.618-.037-1.267-.058-1.943a33.269,33.269,0,0,1,.1-5.007,32.967,32.967,0,0,1,.306,5v1.949a1.378,1.378,0,0,1-.2.919.6.6,0,0,1-.486.2,1.839,1.839,0,0,1-.4-.085,5.964,5.964,0,0,1-1.426-.512Z" transform="translate(-251.599 -101.907)" fill="#263238"/>
        <path id="패스_35" data-name="패스 35" d="M386.335,132.477c.148.042-.19,1,.386,1.965s1.632,1.225,1.584,1.363-.29.106-.724-.037a2.519,2.519,0,0,1-1.347-1.083,2.192,2.192,0,0,1-.264-1.627C386.082,132.646,386.272,132.445,386.335,132.477Z" transform="translate(-248.729 -108.302)" fill="#263238"/>
        <path id="패스_36" data-name="패스 36" d="M389.41,110.857c-.174.206-1.014-.217-2.086-.459s-2.012-.259-2.076-.528c-.026-.127.2-.3.618-.412a3.7,3.7,0,0,1,3.169.75C389.341,110.5,389.484,110.757,389.41,110.857Z" transform="translate(-248.412 -97.398)" fill="#263238"/>
        <path id="패스_37" data-name="패스 37" d="M405.369,117.6c-.227.143-.755-.28-1.484-.528s-1.394-.343-1.458-.6c-.026-.127.137-.29.475-.386a2.3,2.3,0,0,1,2.376.929C405.443,117.307,405.454,117.545,405.369,117.6Z" transform="translate(-256.519 -100.542)" fill="#263238"/>
        <path id="패스_38" data-name="패스 38" d="M329.753,155.2c.275,1.447.665,11.518-.079,15.6-1.394,7.584-11.856,24.293-12.538,25.63-.4.782-9.068,20.623-9.068,20.623s-37.729-11.719-39.609-21.273c0,0,12.743-9.506,15.891-12.4.623-.581,12.173-20.47,12.173-20.47l6.966-12.041s5.387-5.281,8.165-5.281h6.116Z" transform="translate(-193.303 -114.492)" fill="#ff615b"/>
        <path id="패스_39" data-name="패스 39" d="M268.44,240.63s4.441.349,16.847,7.3,15.675,8.978,15.675,8.978L275.522,248S268.9,244.105,268.44,240.63Z" transform="translate(-193.294 -159.339)" opacity="0.4"/>
        <path id="패스_40" data-name="패스 40" d="M325,145.63l-6.939.618L298.13,150.33l8.608,16.039,21.975-2.112s5.323-10.494,3.348-12.775S325,145.63,325,145.63Z" transform="translate(-207.304 -114.511)" fill="#ff615b"/>
        <path id="패스_41" data-name="패스 41" d="M315.391,183.2l14.983-1.516h0l-18,6.591Z" transform="translate(-214.024 -131.522)" opacity="0.4"/>
        <path id="패스_42" data-name="패스 42" d="M338.755,181.471c0,.074-3.919.528-8.767.956s-8.793.755-8.8.681,3.919-.528,8.772-.956S338.75,181.4,338.755,181.471Z" transform="translate(-218.186 -131.418)" fill="#263238"/>
        <path id="패스_43" data-name="패스 43" d="M356.632,156.542c-.048,0-.106-.586-.359-1.489a10.731,10.731,0,0,0-4.13-5.873c-.771-.528-1.3-.792-1.283-.84a1.242,1.242,0,0,1,.4.137,6.777,6.777,0,0,1,.993.528,9.807,9.807,0,0,1,4.225,5.989,6.484,6.484,0,0,1,.169,1.12A1.238,1.238,0,0,1,356.632,156.542Z" transform="translate(-232.186 -115.789)" fill="#263238"/>
        <path id="패스_44" data-name="패스 44" d="M306.18,210.873a3.908,3.908,0,0,1,.776-.153c.528-.079,1.22-.211,2.112-.407s1.928-.47,3.068-.834a32.383,32.383,0,0,0,7.045-3.274c1.014-.639,1.9-1.252,2.641-1.806s1.289-1.019,1.669-1.352a4.922,4.922,0,0,1,.618-.5,3.961,3.961,0,0,1-.528.576c-.364.359-.914.85-1.621,1.426a28.787,28.787,0,0,1-2.6,1.864,32.007,32.007,0,0,1-3.443,1.885,31.472,31.472,0,0,1-3.66,1.415,29.8,29.8,0,0,1-3.105.787c-.9.169-1.627.28-2.139.322A4.849,4.849,0,0,1,306.18,210.873Z" transform="translate(-211.103 -141.37)" fill="#263238"/>
        <path id="패스_45" data-name="패스 45" d="M310.15,209.735c0-.09,1.864-.111,4.088-.634s3.919-1.315,3.95-1.236a4.31,4.31,0,0,1-1.056.576,16.634,16.634,0,0,1-5.735,1.336,4.688,4.688,0,0,1-1.246-.042Z" transform="translate(-212.976 -143.875)" fill="#263238"/>
        <path id="패스_46" data-name="패스 46" d="M332.437,243.59a4.872,4.872,0,0,1-.718.343c-.465.206-1.157.475-2.012.787a46.827,46.827,0,0,1-13.974,2.693c-.914.032-1.653.037-2.16,0a5.273,5.273,0,0,1-.792-.048,3.789,3.789,0,0,1,.792-.058c.528,0,1.246-.048,2.149-.106a56.513,56.513,0,0,0,7.05-.887,55.834,55.834,0,0,0,6.865-1.8c.861-.285,1.558-.528,2.039-.7a3.736,3.736,0,0,1,.761-.227Z" transform="translate(-214.217 -160.736)" fill="#263238"/>
        <path id="패스_47" data-name="패스 47" d="M364.92,187.765,353.9,184c-1.584,6.195-5.809,11.3-11.143,15.96l13.636,7.362a152.416,152.416,0,0,0,7.214-14.46A16.206,16.206,0,0,0,364.92,187.765Z" transform="translate(-228.364 -132.617)" fill="#f5f5f5"/>
        <path id="패스_48" data-name="패스 48" d="M367.649,181.68l-.929,2.942,1.505.713.882-3.121Z" transform="translate(-239.67 -131.522)" fill="#e0e0e0"/>
        <path id="패스_49" data-name="패스 49" d="M364.15,204.092a15.076,15.076,0,0,1,2.023-.074l2.577-5.149-2.963-1.479-.634,1.273,1.368.687Z" transform="translate(-238.458 -138.935)" fill="#ff615b"/>
        <path id="패스_50" data-name="패스 50" d="M376.557,204.332h.074c.217-.613.459-1.215.724-1.806a4.284,4.284,0,0,0-.76-.491,3.57,3.57,0,0,0-3.364-.085l.787,1.32a1.88,1.88,0,0,1,1.764.026C376.346,203.561,376.594,203.91,376.557,204.332Z" transform="translate(-242.742 -140.908)" fill="#ff615b"/>
        <path id="패스_51" data-name="패스 51" d="M367.834,209.4c-.713.116-1.294.079-1.991.253l-.433.845,1.584.792.967-1.928Z" transform="translate(-239.052 -144.583)" fill="#ff615b"/>
        <path id="패스_52" data-name="패스 52" d="M374.447,210.22h-.1L371,211.234l-.528,1.056,2.308,1.151a1.713,1.713,0,0,1,.079-.211,8.723,8.723,0,0,1,.6-1.056l-.111-.053.18-.058Z" transform="translate(-241.44 -144.989)" fill="#ff615b"/>
        <path id="패스_53" data-name="패스 53" d="M365.7,208.09a1.647,1.647,0,0,1-.438.158c-.29.09-.708.2-1.23.317a35.691,35.691,0,0,1-4.14.681,34.858,34.858,0,0,1-4.183.18c-.528,0-.972-.032-1.273-.058a1.54,1.54,0,0,1-.459-.063,13.961,13.961,0,0,1,1.727-.074c1.056-.026,2.54-.1,4.162-.259s3.074-.407,4.125-.6A13.6,13.6,0,0,1,365.7,208.09Z" transform="translate(-233.659 -143.984)" fill="#263238"/>
        <path id="패스_54" data-name="패스 54" d="M241.635,264.79c-.29.871-22.968,34.909-42.45,41.89l-8.45-1.31-44.785-13.2,4.943-12.506h0l41.875,9.015,19.25-21.806,5.809-15.041Z" transform="translate(-135.493 -164.624)" fill="#ffbe9d"/>
        <path id="패스_55" data-name="패스 55" d="M150.94,317.419l18.658,5.5,4.394-14.328-20.533-4.859Z" transform="translate(-137.848 -189.115)" fill="#455a64"/>
        <path id="패스_56" data-name="패스 56" d="M139.971,315.293l-.343.058s-10.9,11.476-13.478,10.562l11.291-26.364,6.908,2.92-.639.871A20.722,20.722,0,0,0,139.971,315.293Z" transform="translate(-126.15 -187.142)" fill="#ff615b"/>
        <g id="그룹_1" data-name="그룹 1" transform="translate(13.417 116.526)" opacity="0.6">
          <path id="패스_57" data-name="패스 57" d="M153.739,308.633a1.172,1.172,0,0,0-.908-1.273,1.13,1.13,0,0,0-1.268.893,1.231,1.231,0,0,0,.972,1.341,1.173,1.173,0,0,0,1.215-1.056" transform="translate(-151.555 -307.348)" fill="#fff"/>
        </g>
        <g id="그룹_2" data-name="그룹 2" transform="translate(0.005 112.397)" opacity="0.6">
          <path id="패스_58" data-name="패스 58" d="M137.446,299.53l2.112.988L127.94,325.424s-1.014.956-1.78.47Z" transform="translate(-126.16 -299.53)" fill="#fff"/>
        </g>
        <path id="패스_59" data-name="패스 59" d="M151.129,327.685c-.127-.058.09-.729-.053-1.537s-.528-1.378-.438-1.479.766.417.919,1.4S151.235,327.764,151.129,327.685Z" transform="translate(-137.699 -198.99)" fill="#263238"/>
        <path id="패스_60" data-name="패스 60" d="M146.01,332.43c-.137-.026-.116-.676-.475-1.347s-.877-1.056-.819-1.167.824.106,1.252.945S146.137,332.477,146.01,332.43Z" transform="translate(-134.909 -201.459)" fill="#263238"/>
        <path id="패스_61" data-name="패스 61" d="M139.628,334.957c.026-.127.745-.032,1.31.6s.586,1.352.454,1.363-.349-.528-.819-1.056S139.586,335.083,139.628,334.957Z" transform="translate(-132.509 -203.827)" fill="#263238"/>
        <path id="패스_62" data-name="패스 62" d="M151.929,326.868a2.677,2.677,0,0,1,.576-1.315,6.6,6.6,0,0,1,1.014-1.2,6.4,6.4,0,0,1,.729-.581,1.69,1.69,0,0,1,.481-.269.6.6,0,0,1,.708.238.745.745,0,0,1,.053.687,1.616,1.616,0,0,1-.28.465,5.111,5.111,0,0,1-.634.7,5.013,5.013,0,0,1-1.32.877,2.408,2.408,0,0,1-1.4.317c0-.079.528-.2,1.246-.623a5.9,5.9,0,0,0,1.172-.893,5.8,5.8,0,0,0,.555-.66c.2-.248.3-.486.206-.607s-.053-.058-.164-.037a1.4,1.4,0,0,0-.349.2,7.519,7.519,0,0,0-.7.528,7.7,7.7,0,0,0-1.056,1.056C152.22,326.419,151.971,326.915,151.929,326.868Z" transform="translate(-138.277 -198.426)" fill="#263238"/>
        <path id="패스_63" data-name="패스 63" d="M151.74,329.407a2.3,2.3,0,0,1,1.426.2,4.662,4.662,0,0,1,1.368.8,4.752,4.752,0,0,1,.655.681,1.172,1.172,0,0,1,.306,1.125.66.66,0,0,1-.6.4,1.88,1.88,0,0,1-.528-.074,3.126,3.126,0,0,1-.887-.38,3.259,3.259,0,0,1-1.125-1.146,1.875,1.875,0,0,1-.338-1.4,12.356,12.356,0,0,0,.628,1.215,3.248,3.248,0,0,0,1.056.951,2.828,2.828,0,0,0,.771.3c.3.079.57.074.586-.042a.835.835,0,0,0-.232-.65,4.786,4.786,0,0,0-.576-.634,5.284,5.284,0,0,0-1.209-.819C152.268,329.555,151.729,329.487,151.74,329.407Z" transform="translate(-138.225 -201.214)" fill="#263238"/>
        <path id="패스_64" data-name="패스 64" d="M186.765,312.67a1.858,1.858,0,0,1-.116.528c-.116.4-.259.877-.423,1.442l-1.431,4.753c-.528,1.822-1.056,3.47-1.421,4.753-.174.56-.322,1.056-.449,1.436a1.88,1.88,0,0,1-.2.528,2.236,2.236,0,0,1,.1-.528c.079-.349.2-.85.359-1.463.317-1.231.787-2.926,1.347-4.779s1.1-3.528,1.51-4.753c.206-.6.375-1.088.5-1.421a2.329,2.329,0,0,1,.222-.5Z" transform="translate(-152.849 -193.333)" fill="#fafafa"/>
        <path id="패스_65" data-name="패스 65" d="M183.515,312.67a2.321,2.321,0,0,1-.121.528c-.116.4-.253.877-.422,1.442l-1.431,4.753c-.528,1.822-1.056,3.47-1.421,4.753l-.444,1.436a2.433,2.433,0,0,1-.2.528,2.039,2.039,0,0,1,.09-.528c.079-.349.2-.85.364-1.463.317-1.231.787-2.926,1.341-4.779s1.1-3.528,1.51-4.753c.206-.6.38-1.088.528-1.421A2.327,2.327,0,0,1,183.515,312.67Z" transform="translate(-151.315 -193.333)" fill="#fafafa"/>
        <path id="패스_66" data-name="패스 66" d="M312.493,274c.871.581,30.768,30.948,31.349,33.272S354.9,356.123,354.9,356.123l-10.177,2.9s-14.259-27.916-14.259-28.788-4.827-13.731-4.827-13.731L307.5,300.564,288.59,283.411Z" transform="translate(-202.802 -175.086)" fill="#ffbe9d"/>
        <path id="패스_67" data-name="패스 67" d="M402.3,419.437l-6.422-18.357-14.2,4.785,8.033,19.509Z" transform="translate(-246.73 -235.052)" fill="#455a64"/>
        <path id="패스_68" data-name="패스 68" d="M408.1,434.89l.248.243s15.675,2.16,16.43,4.8l-27.99,6.205-1.664-7.309H396.2A20.717,20.717,0,0,0,408.1,434.89Z" transform="translate(-253.072 -251.007)" fill="#ff615b"/>
        <g id="그룹_3" data-name="그룹 3" transform="translate(144.99 188.364)" opacity="0.6">
          <path id="패스_69" data-name="패스 69" d="M401.287,443.478a1.172,1.172,0,0,0-.5,1.484,1.125,1.125,0,0,0,1.463.528,1.236,1.236,0,0,0,.528-1.584,1.173,1.173,0,0,0-1.584-.364" transform="translate(-400.689 -443.374)" fill="#fff"/>
        </g>
        <g id="그룹_4" data-name="그룹 4" transform="translate(143.279 187.749)" opacity="0.6">
          <path id="패스_70" data-name="패스 70" d="M397.878,449.588l-.428-2.281,27-5.1s1.368.264,1.421,1.172Z" transform="translate(-397.45 -442.21)" fill="#fff"/>
        </g>
        <path id="패스_71" data-name="패스 71" d="M419.007,434.826c.026.137-.644.349-1.22.94s-.808,1.241-.945,1.215-.111-.861.6-1.584S419.007,434.694,419.007,434.826Z" transform="translate(-263.291 -250.943)" fill="#263238"/>
        <path id="패스_72" data-name="패스 72" d="M425.667,435.96c.058.121-.481.486-.819,1.167s-.333,1.326-.47,1.347-.4-.729.037-1.584S425.667,435.807,425.667,435.96Z" transform="translate(-266.783 -251.491)" fill="#263238"/>
        <path id="패스_73" data-name="패스 73" d="M431.367,439.595c-.116.058-.459-.586-.275-1.41s.761-1.267.84-1.167-.222.591-.364,1.273S431.5,439.552,431.367,439.595Z" transform="translate(-270.021 -252.004)" fill="#263238"/>
        <path id="패스_74" data-name="패스 74" d="M416.2,433.517a2.753,2.753,0,0,1-1.4.3,6.291,6.291,0,0,1-1.584-.127,6.211,6.211,0,0,1-.9-.248,1.655,1.655,0,0,1-.5-.232.618.618,0,0,1-.227-.713.8.8,0,0,1,.528-.449,1.782,1.782,0,0,1,.528-.042,4.832,4.832,0,0,1,.94.106,5.213,5.213,0,0,1,1.479.56c.787.459,1.12.919,1.056.956s-.459-.3-1.231-.65a5.946,5.946,0,0,0-1.41-.423,4.97,4.97,0,0,0-.861-.074c-.312,0-.565.042-.613.19,0,.058,0,.079.069.153a1.39,1.39,0,0,0,.364.169,5.815,5.815,0,0,0,.834.259,7.529,7.529,0,0,0,1.468.222,10.205,10.205,0,0,1,1.458.042Z" transform="translate(-260.826 -249.644)" fill="#263238"/>
        <path id="패스_75" data-name="패스 75" d="M419.346,431.1c-.042.032-.423-.4-.671-1.273a4.669,4.669,0,0,1-.148-1.584,5.061,5.061,0,0,1,.169-.935,1.183,1.183,0,0,1,.739-.9.671.671,0,0,1,.671.259,1.989,1.989,0,0,1,.259.486,3.216,3.216,0,0,1,.211.94,3.307,3.307,0,0,1-.28,1.584c-.385.845-.919,1.135-.94,1.093a12.732,12.732,0,0,0,.618-1.22,3.248,3.248,0,0,0,.153-1.415,3,3,0,0,0-.206-.8c-.111-.29-.275-.528-.38-.449a1.118,1.118,0,0,0-.385.565,4.513,4.513,0,0,0-.18.84,5.241,5.241,0,0,0,.037,1.458C419.156,430.586,419.414,431.066,419.346,431.1Z" transform="translate(-264.11 -246.998)" fill="#263238"/>
        <path id="패스_76" data-name="패스 76" d="M383.93,409.638a2.168,2.168,0,0,1,.528-.222l1.421-.5,4.69-1.611,4.7-1.616,1.426-.481a2.5,2.5,0,0,1,.528-.143,1.9,1.9,0,0,1-.5.243c-.327.143-.808.333-1.4.56-1.183.459-2.831,1.056-4.669,1.7s-3.517,1.162-4.732,1.537l-1.447.417A2.452,2.452,0,0,1,383.93,409.638Z" transform="translate(-247.791 -236.935)" fill="#fafafa"/>
        <path id="패스_77" data-name="패스 77" d="M385.83,412.283a2.187,2.187,0,0,1,.528-.217l1.415-.5,4.695-1.611,4.69-1.616c.56-.185,1.056-.343,1.426-.481a2.017,2.017,0,0,1,.528-.137,2.287,2.287,0,0,1-.5.238c-.327.143-.808.333-1.4.565-1.188.454-2.836,1.056-4.669,1.7s-3.507,1.162-4.721,1.532c-.613.185-1.1.327-1.447.417A2.451,2.451,0,0,1,385.83,412.283Z" transform="translate(-248.688 -238.186)" fill="#fafafa"/>
        <path id="패스_78" data-name="패스 78" d="M264.242,250.144s-15.976,20.068-19.794,21.653c-1.22.528,3.169,5.646,3.169,5.646l2.171-2.456c6.9,3.628,12.237,8.381,17.729,15.062l9.506-8.946,8.006,10.6,22.788-14.1-11.191-12.052s-15.078-13.589-28.682-17.232C267.955,248.3,266.381,248.285,264.242,250.144Z" transform="translate(-181.872 -162.964)" fill="#263238"/>
        <path id="패스_79" data-name="패스 79" d="M309.488,286a1.4,1.4,0,0,1-.185.248l-.565.687c-.5.586-1.236,1.421-2.15,2.45-1.833,2.054-4.394,4.864-7.3,7.922s-5.593,5.73-7.615,7.6c-1.014.929-1.838,1.679-2.435,2.17l-.687.57a1.052,1.052,0,0,1-.254.18,1.416,1.416,0,0,1,.217-.222l.65-.607c.57-.528,1.373-1.283,2.371-2.229,1.98-1.907,4.653-4.61,7.552-7.652s5.482-5.809,7.346-7.848l2.218-2.392.607-.644A1.669,1.669,0,0,1,309.488,286Z" transform="translate(-202.665 -180.748)" fill="#455a64"/>
        <path id="패스_80" data-name="패스 80" d="M267.859,310.953a2.1,2.1,0,0,1-.222-.206l-.581-.628c-.5-.528-1.241-1.331-2.176-2.276s-2.076-2.044-3.38-3.216-2.8-2.4-4.415-3.633-3.211-2.308-4.69-3.264-2.847-1.743-4.014-2.382-2.112-1.141-2.783-1.473l-.76-.391a1.58,1.58,0,0,1-.259-.153,1.09,1.09,0,0,1,.28.1l.787.349c.681.3,1.648.776,2.831,1.4s2.556,1.4,4.056,2.34,3.095,2.033,4.721,3.259,3.1,2.482,4.415,3.66,2.44,2.3,3.353,3.269,1.637,1.769,2.113,2.345l.528.66A1.265,1.265,0,0,1,267.859,310.953Z" transform="translate(-182.035 -184.207)" fill="#455a64"/>
        <path id="패스_81" data-name="패스 81" d="M286.023,253.58a2.166,2.166,0,0,1-.211.275l-.644.76-2.392,2.783c-2.017,2.35-4.78,5.614-7.758,9.279s-5.6,7.05-7.489,9.506L265.3,279.1l-.613.787a2.39,2.39,0,0,1-.227.264,1.745,1.745,0,0,1,.185-.3c.148-.206.338-.481.57-.819.5-.708,1.236-1.722,2.16-2.963,1.843-2.493,4.447-5.889,7.431-9.559s5.783-6.9,7.821-9.237c1.03-1.162,1.87-2.112,2.461-2.725l.681-.729A1.357,1.357,0,0,1,286.023,253.58Z" transform="translate(-191.416 -165.45)" fill="#fafafa"/>
        <path id="패스_82" data-name="패스 82" d="M282.53,253.38a2.2,2.2,0,0,1-.211.264l-.65.734-2.414,2.641c-2.033,2.25-4.822,5.382-7.827,8.9s-5.672,6.8-7.584,9.152l-2.255,2.794c-.254.312-.46.565-.623.755a1.657,1.657,0,0,1-.227.254,1.177,1.177,0,0,1,.185-.285l.581-.787c.528-.681,1.252-1.658,2.186-2.852,1.875-2.392,4.51-5.656,7.52-9.179s5.809-6.638,7.9-8.857c1.056-1.114,1.88-2,2.477-2.609l.687-.7A1.231,1.231,0,0,1,282.53,253.38Z" transform="translate(-189.66 -165.356)" fill="#fafafa"/>
        <path id="패스_83" data-name="패스 83" d="M328.45,309.118c-.063.042-2.049-2.641-4.436-6.01s-4.272-6.121-4.225-6.168,2.044,2.641,4.436,6.01S328.514,309.118,328.45,309.118Z" transform="translate(-217.524 -185.91)" fill="#455a64"/>
      </g>
    </g>
    <g id="그룹_59" data-name="그룹 59" transform="translate(1237.048 358.845)">
      <g id="그룹_51" data-name="그룹 51" transform="translate(0 0)">
        <g id="그룹_50" data-name="그룹 50">
          <g id="그룹_49" data-name="그룹 49">
            <g id="그룹_48" data-name="그룹 48">
              <path id="패스_279" data-name="패스 279" d="M41.014,0,39.535,2.027c-3.088,8.658-3.051,17.947,2.14,25.469L52.069,43.236,8.617,29.042,0,37.49,55.295,62.5a12.8,12.8,0,0,0,13.69-2.282h0a13.376,13.376,0,0,0,4.191-12.156L63.521,14.114Z" transform="translate(8.972 104.39) rotate(-3)" fill="#ffbe9d"/>
              <path id="패스_280" data-name="패스 280" d="M1.358,3.295H25.887L24.828,0,0,1.445Z" transform="translate(55.911 132.729) rotate(7)" fill="#eb996e"/>
              <path id="패스_281" data-name="패스 281" d="M8.088,8.547A11.112,11.112,0,0,1,6.961,7.231C6.286,6.407,5.34,5.286,4.226,4.1S2.039,1.911,1.249,1.195A10.247,10.247,0,0,1,0,0,6.791,6.791,0,0,1,1.411,1.006,31.841,31.841,0,0,1,4.476,3.862a31.14,31.14,0,0,1,2.7,3.22,7.537,7.537,0,0,1,.911,1.465Z" transform="translate(62.582 144.581) rotate(-3)" fill="#eb996e"/>
              <path id="패스_282" data-name="패스 282" d="M0,0,47.935,11.842a14.515,14.515,0,0,1,9.891,8.446L82.664,73.441,67.48,76.419,39.381,29,2.248,21.294Z" transform="translate(79.824 106.65) rotate(25)" fill="#ffbe9d"/>
              <path id="패스_283" data-name="패스 283" d="M2.89,0a9.756,9.756,0,0,1-1.3,2.262A9.621,9.621,0,0,1,0,4.334,19.579,19.579,0,0,1,2.89,0Z" transform="translate(104.757 145.507) rotate(25)" fill="#eb996e"/>
              <path id="패스_284" data-name="패스 284" d="M0,17.459l1.357.284L15.258.6,12.841,0Z" transform="translate(81.59 112.797) rotate(20)" fill="#eb996e"/>
              <path id="패스_285" data-name="패스 285" d="M61.317,22.016c-1.2,1.222,5.035-.4,5.3.891.1.473.114.851-3.558,1.2a73.318,73.318,0,0,1-8.874-.176h-.341L25,31.468a9.757,9.757,0,0,1-4.784.054L0,12.436,7.7,0,24.141,18.121l28.033-4.483,1.345-1.046c.389-.3.813-.635,1.286-1.033A6.736,6.736,0,0,0,56.2,9.884a11.318,11.318,0,0,0,1.2-2.518c.2-.851,1.2-1.013,1.441-.277s-.239,3.085-1.794,5.293,2.23,1.242,3.63.918,5.741-1.1,6.159-.675c.6.6.144,1.472-1.25,1.755S60.031,15.866,60.2,16.7s7.248-.952,7.248-.952,1.465-.675,1.686.3c.4,1.708-7.23,2.95-7.959,3.045-.508.068-.353.979.185.871s7.032-1.944,7.457-.209C69.091,21.058,62.5,20.814,61.317,22.016Z" transform="translate(87.168 55.937) rotate(-25)" fill="#ffbe9d"/>
              <path id="패스_286" data-name="패스 286" d="M.047,3.72a4.955,4.955,0,0,1,.1-1.884A5.239,5.239,0,0,1,.6,0,10.073,10.073,0,0,1,.047,3.72Z" transform="translate(118.807 61.594) rotate(-25)" fill="#eb996e"/>
              <path id="패스_287" data-name="패스 287" d="M50.062,11.01,34.219,0,26.666,4.322h0L4.362.532A24.2,24.2,0,0,0,0,13.859c-.034,3.882,1.35,8.824,5.9,16.332l4.193,6.981L37.1,35.43,35.574,30.7Z" transform="translate(48.629 97.121) rotate(7)" fill="#fe433c"/>
              <g id="그룹_8" data-name="그룹 8" transform="translate(48.628 97.65) rotate(7)" opacity="0.4">
                <path id="패스_288" data-name="패스 288" d="M50.062,10.478,35.187.283,25.879,13.624,35.187.283,4.362,0A24.2,24.2,0,0,0,0,13.327c-.034,3.882,1.35,8.824,5.9,16.332l4.193,6.981L37.1,34.9l-1.526-4.726Z" transform="translate(0 0)"/>
              </g>
              <path id="패스_289" data-name="패스 289" d="M9.72,35.674a2.872,2.872,0,0,1-.155-.358L9.18,34.27a34.9,34.9,0,0,0-1.742-3.686c-.817-1.519-1.89-3.274-3.065-5.239a38.293,38.293,0,0,1-3.308-6.684A17.621,17.621,0,0,1,.052,11.275,29.625,29.625,0,0,1,1.193,5.286C1.679,3.625,2.152,2.3,2.483,1.4c.162-.425.29-.77.4-1.046A1.35,1.35,0,0,1,3.043,0a2.1,2.1,0,0,1-.095.378l-.338,1.06c-.29.925-.722,2.255-1.175,3.916A30.956,30.956,0,0,0,.376,11.3,17.736,17.736,0,0,0,1.4,18.539a39.51,39.51,0,0,0,3.261,6.643c1.148,1.971,2.208,3.74,3,5.28a30.484,30.484,0,0,1,1.647,3.761c.155.466.257.83.324,1.073A1.208,1.208,0,0,1,9.72,35.674Z" transform="translate(50.583 98.944) rotate(7)" fill="#fafafa"/>
              <path id="패스_290" data-name="패스 290" d="M9.378,33.743a1.871,1.871,0,0,1-.2-.311l-.506-.911L6.866,29.146c-.756-1.458-1.647-3.173-2.64-5.064A66.008,66.008,0,0,1,1.2,17.763,18.087,18.087,0,0,1,.007,10.789,31.219,31.219,0,0,1,.682,5.1c.331-1.593.675-2.869.9-3.747C1.7.945,1.8.614,1.877.344A1.222,1.222,0,0,1,2,0a1.3,1.3,0,0,1-.054.358c-.061.277-.135.614-.223,1.026-.2.884-.5,2.167-.8,3.76A32.887,32.887,0,0,0,.31,10.789,18.229,18.229,0,0,0,1.505,17.54a68.833,68.833,0,0,0,2.991,6.3c.965,1.924,1.89,3.686,2.566,5.178l1.708,3.45c.182.385.331.675.446.952a1.175,1.175,0,0,1,.162.324Z" transform="translate(52.305 100.422) rotate(7)" fill="#fafafa"/>
              <path id="패스_291" data-name="패스 291" d="M5.434,16.3c-.088,0-1.35-3.592-2.883-8.1S-.089.034.006,0s1.35,3.592,2.883,8.1A82.673,82.673,0,0,1,5.434,16.3Z" transform="translate(77.434 119.665) rotate(7)" fill="#263238"/>
              <path id="패스_293" data-name="패스 293" d="M10.6,11.774C14.824,8.75,18.747,5.968,23.284,4.3L20.306,0l-.783.479C16.04,2.633,1.97,11.673.214,13.915c-1.978,2.478,10.384-2.14,10.384-2.14" transform="translate(0 130.952) rotate(-3)" fill="#ff615b"/>
              <path id="패스_294" data-name="패스 294" d="M20.606,0a1,1,0,0,0-.23.122l-.621.385L17.48,1.951C15.569,3.18,12.95,4.922,10.1,6.907s-5.4,3.835-7.21,5.2L.75,13.739l-.56.439c-.128.1-.2.162-.189.169l.189-.169.594-.425,2.181-1.6C4.807,10.8,7.353,8.979,10.2,6.994s5.455-3.734,7.345-5c.884-.587,1.634-1.08,2.241-1.492L20.4.1A1.255,1.255,0,0,0,20.606,0Z" transform="translate(0.082 131.137) rotate(-3)" fill="#263238"/>
              <path id="패스_295" data-name="패스 295" d="M6.643.4c0-.04-1.485-.155-3.322-.263S0-.027,0,.013,1.479.169,3.315.277,6.637.439,6.643.4Z" transform="translate(12.206 136.439) rotate(-3)" fill="#fafafa"/>
              <path id="패스_296" data-name="패스 296" d="M6.265.543c0-.041-1.4-.189-3.126-.338S0-.031,0,.01,1.4.2,3.126.347,6.259.577,6.265.543Z" transform="translate(10.478 137.803) rotate(-3)" fill="#fafafa"/>
              <path id="패스_297" data-name="패스 297" d="M0,0A4.308,4.308,0,0,1,.284.891a4.105,4.105,0,0,1-.047.925A1.512,1.512,0,0,0,0,0Z" transform="translate(6.927 142.033) rotate(-3)" fill="#263238"/>
              <path id="패스_298" data-name="패스 298" d="M0,0A6.04,6.04,0,0,1,.315.783a3,3,0,0,1,0,.83A.959.959,0,0,0,.484.756,1.148,1.148,0,0,0,0,0Z" transform="translate(5.604 142.686) rotate(-3)" fill="#263238"/>
              <path id="패스_299" data-name="패스 299" d="M0,0A4.489,4.489,0,0,1,.3.945a4.725,4.725,0,0,1-.034.992A1.7,1.7,0,0,0,0,0Z" transform="translate(8.246 141.408) rotate(-3)" fill="#263238"/>
              <path id="패스_300" data-name="패스 300" d="M.969.047A1.127,1.127,0,0,0,.787.263,5.483,5.483,0,0,0,.355.9,2.7,2.7,0,0,0,0,1.985a1.87,1.87,0,0,0,.081.675.8.8,0,0,0,.533.533.506.506,0,0,0,.547-.338,1.756,1.756,0,0,0,.122-.587,5,5,0,0,0-.041-1.026A4.4,4.4,0,0,0,.895.054v0a.831.831,0,0,0,0,.122A.278.278,0,0,1,.942.061h0a6.184,6.184,0,0,1,.277,1.188,4.873,4.873,0,0,1,0,1,1.6,1.6,0,0,1-.108.54.378.378,0,0,1-.4.263C.281,2.923.173,2.376.2,1.971A2.7,2.7,0,0,1,.51.925C.767.385.989.068.969.047Z" transform="translate(8.237 142.992) rotate(-3)" fill="#263238"/>
              <path id="패스_301" data-name="패스 301" d="M0,.11a.587.587,0,0,0,.095.2A3.565,3.565,0,0,0,.466.819a3.762,3.762,0,0,0,.675.628,2.483,2.483,0,0,0,.479.277.452.452,0,0,0,.6-.142A.56.56,0,0,0,2.1.968,2.545,2.545,0,0,0,1.674.61,3.8,3.8,0,0,0,.851.171,3.271,3.271,0,0,0,.25.009a.745.745,0,0,0-.23,0,4.9,4.9,0,0,1,.8.27A3.974,3.974,0,0,1,1.6.725c.243.2.675.473.5.8-.074.149-.27.149-.432.081a2.757,2.757,0,0,1-.459-.257A4.42,4.42,0,0,1,.533.765C.182.38.02.1,0,.11Z" transform="translate(9.189 143.018) rotate(-3)" fill="#263238"/>
              <path id="패스_302" data-name="패스 302" d="M6.508.872A6.365,6.365,0,0,0,5.556.71L3.247.352C2.343.224,1.526.129.932.069L.257.008A1.064,1.064,0,0,0,0,.008,6.363,6.363,0,0,0,.952.17L3.261.5c.9.128,1.722.23,2.316.284l.675.068Z" transform="translate(14.015 134.756) rotate(-3)" fill="#fafafa"/>
              <path id="패스_303" data-name="패스 303" d="M15.778,0C10.3,1.31,5.232,2.5,0,2.329L1.236,7.852,2.214,7.7c4.375-.743,22.165-4.051,24.852-5.61C30.064.378,15.778,0,15.778,0" transform="translate(109.499 200.382) rotate(25)" fill="#ff615b"/>
              <path id="패스_304" data-name="패스 304" d="M0,6A1.224,1.224,0,0,0,.277,6l.783-.128L3.929,5.34c2.417-.459,5.752-1.134,9.418-1.958S20.322,1.7,22.725,1.073L25.54.311,26.3.088A1.521,1.521,0,0,0,26.56,0a1.607,1.607,0,0,0-.27.054l-.77.182L22.691.911c-2.39.594-5.7,1.4-9.364,2.221s-6.994,1.526-9.4,2.025l-2.856.587L.29,5.907Z" transform="translate(109.69 202.177) rotate(25)" fill="#263238"/>
              <path id="패스_305" data-name="패스 305" d="M0,0c0,.04,1.425.763,3.22,1.614S6.488,3.134,6.508,3.093,5.084,2.337,3.288,1.48.02-.032,0,0Z" transform="translate(113.778 204.61) rotate(25)" fill="#fafafa"/>
              <path id="패스_306" data-name="패스 306" d="M0,0C0,.042,1.35.764,3,1.615A33.365,33.365,0,0,0,6.069,3.087c.02-.041-1.35-.756-3-1.607S.02-.032,0,0Z" transform="translate(116.496 205.297) rotate(25)" fill="#fafafa"/>
              <path id="패스_307" data-name="패스 307" d="M.128,1.917A4.624,4.624,0,0,1,.2.911,4.461,4.461,0,0,1,.635,0,1.62,1.62,0,0,0,.128,1.917Z" transform="translate(127.366 208.922) rotate(25)" fill="#263238"/>
              <path id="패스_308" data-name="패스 308" d="M.18,1.742A8.774,8.774,0,0,1,.18.83,3.821,3.821,0,0,1,.545,0,1.127,1.127,0,0,0,.031.8a1.3,1.3,0,0,0,.149.945Z" transform="translate(128.694 209.705) rotate(25)" fill="#263238"/>
              <path id="패스_309" data-name="패스 309" d="M.115,2.025A3.119,3.119,0,0,1,.635,0a1.83,1.83,0,0,0-.52,2.025Z" transform="translate(125.988 208.167) rotate(25)" fill="#263238"/>
              <path id="패스_310" data-name="패스 310" d="M0,3.092a2.584,2.584,0,0,0,.27-.135,5.625,5.625,0,0,0,.675-.466,2.842,2.842,0,0,0,.8-.945,1.938,1.938,0,0,0,.2-.722A.857.857,0,0,0,1.627.067.547.547,0,0,0,.952.188a1.789,1.789,0,0,0-.358.54,5.609,5.609,0,0,0-.378,1.04,4.489,4.489,0,0,0-.128,1.35v.061l.034-.047c.041-.074.061-.115.054-.115s0,0-.088.095H.156a6.807,6.807,0,0,1,.209-1.3A5.646,5.646,0,0,1,.756.8,1.91,1.91,0,0,1,1.087.3.405.405,0,0,1,1.594.2c.378.3.257.911.074,1.29a2.748,2.748,0,0,1-.743.925C.365,2.848-.013,3.071,0,3.092Z" transform="translate(127.162 205.333) rotate(25)" fill="#263238"/>
              <path id="패스_311" data-name="패스 311" d="M1.815,2.5a.879.879,0,0,0,0-.25,3.924,3.924,0,0,0-.162-.675,4.4,4.4,0,0,0-.439-.9A3.211,3.211,0,0,0,.85.187a.506.506,0,0,0-.675-.1A.608.608,0,0,0,.053.761a2.827,2.827,0,0,0,.277.533,3.632,3.632,0,0,0,.675.77,3.7,3.7,0,0,0,.54.412c.135.081.216.115.223.1a6.515,6.515,0,0,1-.675-.587,4.422,4.422,0,0,1-.6-.77C.323.923.033.484.317.214.452.093.647.174.782.3a3.186,3.186,0,0,1,.351.446,4.727,4.727,0,0,1,.452.871C1.741,2.152,1.788,2.5,1.815,2.5Z" transform="translate(125.393 205.024) rotate(25)" fill="#263238"/>
              <path id="패스_312" data-name="패스 312" d="M0,0A7.036,7.036,0,0,0,.891.554L3.072,1.823c.851.493,1.634.932,2.208,1.236l.675.344c.162.081.257.122.257.108a8.287,8.287,0,0,0-.884-.547L3.146,1.674C2.3,1.175,1.512.743.945.439L.27.095A1.181,1.181,0,0,0,0,0Z" transform="translate(111.417 203.809) rotate(25)" fill="#fafafa"/>
              <path id="패스_313" data-name="패스 313" d="M0,43.513l7.217-6.792C9.83,34.27,17.243,29.733,18.843,26.526c2.66-5.34,2.869-10.181,5.178-15.872C24.94,8.392,29.078-2.9,40.961.7c7.372,2.241,11.572,4.78,16.068,8.986,2.262,2.127,8.1,10.195,8.1,10.195L57.5,32.083l-1.884,3.126A11.342,11.342,0,0,1,51.7,39.1a8.1,8.1,0,0,1-2.025.824l-3.436.891a7.926,7.926,0,0,0-5.772,6.042l-1.3,5.833-2.289,1.519a23.063,23.063,0,0,1-19.241,2.91h0a23.036,23.036,0,0,1-9.756-5.752Z" transform="translate(31.245 63.421) rotate(-25)" fill="#ff615b"/>
              <path id="패스_314" data-name="패스 314" d="M8.878,0C7.609,4.9,4.28,9.162,0,13.138l15.994,7.724c4.442-3.308,8.034-6.819,9.769-10.8Z" transform="translate(65.522 69.378) rotate(-25)" fill="#e0e0e0"/>
              <path id="패스_315" data-name="패스 315" d="M3.8,1.148.9,6.022,0,5.489,2.444,1.371,1.411.756,1.863,0Z" transform="translate(75.151 71.16) rotate(-25)" fill="#263238"/>
              <path id="패스_316" data-name="패스 316" d="M4.442,4.962l-.864-.513L2.9,5.556l-.878-.52L2.7,3.929,0,2.343l.371-.628L4.638,0,5.6.574,1.553,2.235l1.593.945L3.727,2.2l.851.5L4,3.686l.864.513Z" transform="translate(78.673 72.949) rotate(-25)" fill="#263238"/>
              <path id="패스_317" data-name="패스 317" d="M4.051,5.744l-.459.763L0,4.381l.358-.608L3.389,3.1a1.6,1.6,0,0,0,1.155-.675c.263-.446.108-.884-.486-1.235a1.587,1.587,0,0,0-1.445-.169L2.268.154A2.586,2.586,0,0,1,4.6.445c1.06.628,1.425,1.566.911,2.43a2.289,2.289,0,0,1-1.722,1.06L1.762,4.4Z" transform="translate(83.165 72.92) rotate(-25)" fill="#263238"/>
              <path id="패스_319" data-name="패스 319" d="M0,.911c.317.155,7.089,3.781,7.089,3.781l.628-1.026L.554,0Z" transform="translate(79.016 67.88) rotate(-25)" fill="#455a64"/>
              <path id="패스_320" data-name="패스 320" d="M25.493,0a3.186,3.186,0,0,1,0,.446,11.558,11.558,0,0,1-.1,1.29,25.655,25.655,0,0,1-1.019,4.638,38.859,38.859,0,0,1-2.7,6.5A42.156,42.156,0,0,1,16.946,20.1,65.654,65.654,0,0,1,5.32,30.55c-1.614,1.181-2.944,2.106-3.869,2.741l-1.067.722a2.148,2.148,0,0,1-.385.23,2.842,2.842,0,0,1,.344-.29l1.033-.776,3.794-2.829A69.209,69.209,0,0,0,16.649,19.876a43.511,43.511,0,0,0,4.726-7.15,41.181,41.181,0,0,0,2.748-6.434,28.01,28.01,0,0,0,1.121-4.577C25.412.614,25.446-.007,25.493,0Z" transform="translate(38.272 73.389) rotate(-25)" fill="#fafafa"/>
              <path id="패스_321" data-name="패스 321" d="M25.716,0a1.858,1.858,0,0,1,0,.459c0,.338-.061.77-.108,1.31a16.765,16.765,0,0,1-.257,2.066q-.1.6-.223,1.276c-.04.23-.074.466-.122.675s-.128.473-.189.722c-.128.5-.263,1.013-.405,1.553s-.358,1.08-.547,1.654a34.62,34.62,0,0,1-1.458,3.544,38,38,0,0,1-4.841,7.352,47.366,47.366,0,0,1-6.259,6.157,71.562,71.562,0,0,1-5.725,4.307C3.889,32.211,2.5,33.1,1.533,33.689l-1.127.675A2.087,2.087,0,0,1,0,34.58a2.293,2.293,0,0,1,.365-.27l1.094-.729c.959-.614,2.316-1.539,3.99-2.7a68.114,68.114,0,0,0,5.658-4.355,48.611,48.611,0,0,0,6.2-6.137,38.408,38.408,0,0,0,4.814-7.244,35.328,35.328,0,0,0,1.479-3.5c.189-.56.419-1.094.56-1.627s.284-1.046.419-1.539c.068-.243.135-.479.2-.716s.095-.466.142-.675c.088-.452.169-.871.243-1.269a18.134,18.134,0,0,0,.317-2.025c.068-.533.128-.965.169-1.3A2.808,2.808,0,0,1,25.716,0Z" transform="translate(39.364 73.349) rotate(-25)" fill="#fafafa"/>
              <path id="패스_322" data-name="패스 322" d="M13.829,10.505a1.271,1.271,0,0,1-.162.216,7.349,7.349,0,0,1-.533.547,10.525,10.525,0,0,1-2.268,1.661,8.649,8.649,0,0,1-4.051,1.114,7.042,7.042,0,0,1-4.78-1.728A6.751,6.751,0,0,1,.009,7.67,11.477,11.477,0,0,1,.6,3.538,23.147,23.147,0,0,1,1.616.925,5.975,5.975,0,0,1,2.068,0a5.084,5.084,0,0,1-.324.972c-.23.621-.581,1.512-.9,2.64A11.862,11.862,0,0,0,.333,7.663,6.5,6.5,0,0,0,2.3,12.071a6.853,6.853,0,0,0,4.544,1.661,8.73,8.73,0,0,0,3.909-1.006,12.4,12.4,0,0,0,2.3-1.546A9.3,9.3,0,0,1,13.829,10.505Z" transform="translate(75.283 46.942) rotate(-25)" fill="#fafafa"/>
              <path id="패스_323" data-name="패스 323" d="M15.643,12.585a2.162,2.162,0,0,1-.2.23,6.215,6.215,0,0,1-.675.574,11.686,11.686,0,0,1-2.7,1.634,11.909,11.909,0,0,1-4.611.986,7.886,7.886,0,0,1-5.4-1.877A6.076,6.076,0,0,1,.446,11.579,9.02,9.02,0,0,1,0,8.8,16.73,16.73,0,0,1,.743,4.152L1.62,1.114A10.4,10.4,0,0,1,1.944,0a1.032,1.032,0,0,1,0,.3,5.166,5.166,0,0,1-.162.844c-.155.729-.439,1.776-.77,3.065A17.358,17.358,0,0,0,.338,8.8a7.028,7.028,0,0,0,1.978,5.077,7.636,7.636,0,0,0,5.172,1.809A12.017,12.017,0,0,0,12,14.792a15.345,15.345,0,0,0,3.639-2.208Z" transform="translate(73.833 46.924) rotate(-25)" fill="#fafafa"/>
              <g id="그룹_9" data-name="그룹 9" transform="translate(49.833 65.762) rotate(-25)" opacity="0.3">
                <path id="패스_324" data-name="패스 324" d="M.594,20.868a2.822,2.822,0,0,0,2.363-.209,24.919,24.919,0,0,0,9.452-6.751A18.472,18.472,0,0,0,16.838,3.234l-7.055-3A2.174,2.174,0,0,0,8.878,0C7.818.04,7.643,1.452,7.359,2.478,5.961,7.467,4.814,13.5,3,16.426A11.248,11.248,0,0,1,0,19.9" transform="translate(0 0)"/>
              </g>
              <path id="패스_325" data-name="패스 325" d="M63.6,6.355C57,4.506,47.689,2.021,41.478.374a11.255,11.255,0,0,0-11.2,3.308L7.863,28.3a85.117,85.117,0,0,0-5.988,7.427c-2.3,3.47-2.025,3.686-1.553,3.9,1.195.567,4.274-5.934,4.409-4.139S.058,42.975,1.355,43.515c1.661.675,4.726-6.171,5.057-6.751s1.114-.122.817.371c-.439.709-4.807,8.237-3.187,8.946.9.392,1.411-1.317,1.411-1.317s3.578-7.359,4.334-7-1.195,4.76-1.958,6.191-.392,2.37.5,2.2c.614-.122,3.052-4.449,3.774-5.887s2.633-5.4,3.261-2.647,2.133,4.665,2.883,4.895,1.35-.749.8-1.452A10.31,10.31,0,0,1,17.9,38.438a6.974,6.974,0,0,1-.338-2.268c0-.675.047-1.249.088-1.776l.115-1.749L37.3,12.837l21.9,7.6A7.426,7.426,0,1,0,63.623,6.315Z" transform="translate(3.821 68.509) rotate(-25)" fill="#ffbe9d"/>
              <path id="패스_326" data-name="패스 326" d="M0,0A3.875,3.875,0,0,1,1.593,2.025a3.943,3.943,0,0,1,.3,2.586A19.475,19.475,0,0,0,1.269,2.16,18.007,18.007,0,0,0,0,0Z" transform="translate(39.32 61.748) rotate(-25)" fill="#eb996e"/>
              <path id="패스_327" data-name="패스 327" d="M12.186,0a1.114,1.114,0,0,1,.2.581,2.782,2.782,0,0,1-.324,1.641,4.294,4.294,0,0,1-1.782,1.735A18.339,18.339,0,0,1,7.514,5.124a32.014,32.014,0,0,1-5.273,1.35C1.566,6.589,1,6.657.608,6.691a1.849,1.849,0,0,1-.608,0,21.6,21.6,0,0,1,2.194-.473,43.3,43.3,0,0,0,5.2-1.445,20.892,20.892,0,0,0,2.734-1.121,4.227,4.227,0,0,0,1.722-1.566,2.856,2.856,0,0,0,.4-1.519C12.233.216,12.152.007,12.186,0Z" transform="translate(82.069 8.181) rotate(-25)" fill="#263238"/>
              <path id="패스_328" data-name="패스 328" d="M0,20.208c1.4.236,2.7-.871,3.376-2.086a19.6,19.6,0,0,1,2.093-3.679,14.688,14.688,0,0,0,2.086-2.167c.506-.871.533-2.1.986-3.092.628-1.35,2.059-2.241,2.741-3.592A3.828,3.828,0,1,0,4.247,2.634" transform="translate(90.046 18.018) rotate(-25)" fill="#263238"/>
              <path id="패스_329" data-name="패스 329" d="M13.626,33.75l2.316-4.726s4.827,1.431,8.594-3.943A69.892,69.892,0,0,0,30.221,13.6a6.846,6.846,0,0,0-3.99-9.04L13.639,0l-.884,1.9L.684,27.552a7.177,7.177,0,0,0,3.531,9.594h0A7.177,7.177,0,0,0,13.626,33.75Z" transform="translate(65.694 24.637) rotate(-25)" fill="#ffbe9d"/>
              <path id="패스_330" data-name="패스 330" d="M1.593,1.119a.83.83,0,0,1-1.087.405A.8.8,0,0,1,.061.471a.83.83,0,0,1,1.087-.4.8.8,0,0,1,.446,1.046Z" transform="translate(95.512 27.488) rotate(-25)" fill="#263238"/>
              <path id="패스_331" data-name="패스 331" d="M2.942,1.728c-.142.054-.5-.675-1.3-1.033S.046.418.005.283.167.087.511.026a2.268,2.268,0,0,1,1.35.209,2.174,2.174,0,0,1,.979.945C3.043,1.464,3.043,1.68,2.942,1.728Z" transform="translate(94.245 26.603) rotate(-25)" fill="#263238"/>
              <path id="패스_332" data-name="패스 332" d="M1.593,1.118a.83.83,0,0,1-1.087.405A.8.8,0,0,1,.061.476.83.83,0,0,1,1.148.071a.8.8,0,0,1,.446,1.046Z" transform="translate(86.568 27.332) rotate(-25)" fill="#263238"/>
              <path id="패스_333" data-name="패스 333" d="M2.942,1.728c-.142.054-.506-.641-1.31-1.033S.046.418.005.276.161.087.512.026a2.269,2.269,0,0,1,1.35.209,2.174,2.174,0,0,1,.979.945C3.037,1.491,3.037,1.707,2.942,1.728Z" transform="translate(85.419 26.606) rotate(-25)" fill="#263238"/>
              <path id="패스_334" data-name="패스 334" d="M0,6.859a5.833,5.833,0,0,1,1.418.4c.216.081.432.135.533,0a1.168,1.168,0,0,0,.162-.675c.047-.587.1-1.209.155-1.857A28.867,28.867,0,0,1,2.9,0a30.832,30.832,0,0,1-.25,4.793c-.061.675-.122,1.263-.182,1.857a1.35,1.35,0,0,1-.284.857.608.608,0,0,1-.486.135,1.843,1.843,0,0,1-.371-.122A6.022,6.022,0,0,1,0,6.859Z" transform="translate(89.075 27.389) rotate(-25)" fill="#263238"/>
              <path id="패스_335" data-name="패스 335" d="M6.751,5.887A16.527,16.527,0,0,1,0,0S-.054,4.929,6.043,7.224Z" transform="translate(83.793 41.864) rotate(-25)" fill="#eb996e"/>
              <path id="패스_336" data-name="패스 336" d="M3.855,1.739c-.189.182-.938-.311-1.938-.675S.034.605,0,.348C0,.227.223.085.635.024A3.376,3.376,0,0,1,2.221.213a3.308,3.308,0,0,1,1.35.864C3.848,1.368,3.943,1.624,3.855,1.739Z" transform="translate(84.911 23.493) rotate(-25)" fill="#263238"/>
              <path id="패스_337" data-name="패스 337" d="M2.7,1.731c-.23.115-.675-.344-1.35-.675S.061.583,0,.326C0,.2.169.07.5.016A2.08,2.08,0,0,1,1.749.252a2.154,2.154,0,0,1,.911.9C2.822,1.447,2.809,1.67,2.7,1.731Z" transform="translate(94.165 23.88) rotate(-25)" fill="#263238"/>
              <path id="패스_338" data-name="패스 338" d="M.936.5A15.832,15.832,0,0,0,0,6.221,6.448,6.448,0,0,0,2.624,11.2a9.815,9.815,0,0,0,4.328,1.2l4.348.5a7.575,7.575,0,0,0,2.559,0,4.767,4.767,0,0,0,3.376-3.774,7.2,7.2,0,0,0-2.6-6.664A11.632,11.632,0,0,0,7.68,0,31.488,31.488,0,0,0,.254.793" transform="translate(83.422 14.095) rotate(-25)" fill="#263238"/>
              <path id="패스_339" data-name="패스 339" d="M20.354,15.769l-.979-.675a4.895,4.895,0,0,0-1.107-2.5,3.5,3.5,0,0,0,.587-.405,3.666,3.666,0,0,0,.257-5.057,5.982,5.982,0,0,1-1.2-1.35c-.338-.675-.142-1.539-.331-2.289-.3-1.161-1.431-1.87-2.471-2.464A7.346,7.346,0,0,0,12.908.072a2.525,2.525,0,0,0-2.255.547c-.6.6-.763,1.566-1.452,2.066s-1.519.365-2.289.567c-1.769.459-2.7,2.5-2.64,4.328A6.886,6.886,0,0,0,7.9,13.318a5.5,5.5,0,0,0,.709.311,5.522,5.522,0,0,1-1.222.871,18.1,18.1,0,0,1-3.045.763,5.968,5.968,0,0,0-3.9,8.021,9.532,9.532,0,0,1,.959,2.444,11.049,11.049,0,0,1-.385,2.7,4.848,4.848,0,0,0,5.455,5.4A3.106,3.106,0,0,0,9.059,32.04c.446-1.188-.176-2.572.257-3.767s1.7-1.8,2.194-2.923c.574-1.289,0-2.971.864-4.1s2.464-1,3.8-1.31a5.691,5.691,0,0,0,4.179-4.172Z" transform="translate(61.282 8.602) rotate(-25)" fill="#263238"/>
              <path id="패스_340" data-name="패스 340" d="M5.814,0a2.116,2.116,0,0,1-.675.628,5.583,5.583,0,0,1-2.066.817A5.523,5.523,0,0,1,.845,1.377C.291,1.242-.019,1.06,0,1.019a10.215,10.215,0,0,0,3.011.074A10.593,10.593,0,0,0,5.814,0Z" transform="translate(75.936 15.541) rotate(-25)" fill="#ff615b"/>
              <path id="패스_341" data-name="패스 341" d="M.795.4A.3.3,0,0,1,.862.2L.97.42A.675.675,0,0,1,.484.481C.079.393-.063.049.025.008S.3.089.558.136A1.682,1.682,0,0,0,.9.177L1.51.217,1,.4C.9.46.822.46.795.4Z" transform="translate(84.606 13.872) rotate(-25)" fill="#263238"/>
              <path id="패스_342" data-name="패스 342" d="M8.584,11.219S8.307,11.1,7.8,10.9a19.44,19.44,0,0,0-2.214-.628,8.5,8.5,0,0,1-3.18-1.35A5.907,5.907,0,0,1,.084,5.386a4.908,4.908,0,0,1,1.06-4.051A3.815,3.815,0,0,1,2.69.248,4.138,4.138,0,0,1,4.31.005,3.639,3.639,0,0,1,6.491.849a2.309,2.309,0,0,1,.432.466c.081.122.115.189.108.2A5.745,5.745,0,0,0,6.4.95,3.72,3.72,0,0,0,4.3.275a3.632,3.632,0,0,0-2.91,1.29,4.645,4.645,0,0,0-.959,3.8A5.637,5.637,0,0,0,2.6,8.742a8.567,8.567,0,0,0,3.052,1.384,13.874,13.874,0,0,1,2.2.743A2.519,2.519,0,0,1,8.584,11.219Z" transform="translate(63.725 8.96) rotate(-25)" fill="#263238"/>
              <path id="패스_343" data-name="패스 343" d="M1.242,6.963a3.855,3.855,0,0,0,1.9-.149,3.288,3.288,0,0,0,1.58-1.263,3.254,3.254,0,0,0,.392-2.4,3.524,3.524,0,0,0-1.29-2.093,4.01,4.01,0,0,0-1.89-.79A6.677,6.677,0,0,0,0,.346,1.188,1.188,0,0,1,.5.137,4.165,4.165,0,0,1,4.031.812,3.767,3.767,0,0,1,5.462,3.087,3.477,3.477,0,0,1,5,5.741a3.376,3.376,0,0,1-1.769,1.35A2.917,2.917,0,0,1,1.749,7.2,1.053,1.053,0,0,1,1.242,6.963Z" transform="translate(77.456 6.21) rotate(-25)" fill="#263238"/>
              <path id="패스_344" data-name="패스 344" d="M0,8.286c0-.061.6-.2,1.526-.581A4.051,4.051,0,0,0,2.95,6.767a3.3,3.3,0,0,0,.776-1.884c.095-.749.068-1.492.142-2.167A3.99,3.99,0,0,1,4.415.967a2.323,2.323,0,0,1,.9-.844c.27-.128.432-.135.439-.115A2.815,2.815,0,0,0,4.625,1.1a4.051,4.051,0,0,0-.432,1.647c-.061.675,0,1.4-.122,2.187A3.477,3.477,0,0,1,3.187,6.99a3.929,3.929,0,0,1-1.573.945A4.8,4.8,0,0,1,0,8.286Z" transform="translate(97.334 19.237) rotate(-25)" fill="#263238"/>
              <path id="패스_345" data-name="패스 345" d="M.779.1A.884.884,0,0,1,1.826.274a1.053,1.053,0,0,1,.189,1.067,1.283,1.283,0,0,1-.81.743.911.911,0,0,1-.965-.2A1.026,1.026,0,0,1,.091.808C.313.45.475.133.894.052" transform="translate(89.712 35.728) rotate(-25)" fill="#eb996e"/>
              <path id="패스_346" data-name="패스 346" d="M1.4,2.017c-.081.054-.452-.351-.837-.9S-.065.059.016,0s.452.351.837.9S1.481,1.963,1.4,2.017Z" transform="translate(90.07 35.344) rotate(-25)" fill="#263238"/>
            </g>
          </g>
        </g>
      </g>
    </g>
    <g id="그룹_42" data-name="그룹 42" transform="translate(1470.866 341.033)">
      <g id="그룹_22" data-name="그룹 22" transform="translate(0 0)">
        <g id="freepik--Character--inject-4">
          <path id="패스_476" data-name="패스 476" d="M258.912,174.984a9.424,9.424,0,0,0-9.7-5.348c-7.58.7-14.881,10.241-21.753,8.279s-6.022-6.3-6.022-6.3-2.527,6.224,6.038,11.454,20.212-7.967,29.88-4.042Z" transform="translate(-180.248 -148.306)" fill="#2e353a"/>
          <path id="패스_477" data-name="패스 477" d="M260.454,174.513A12.338,12.338,0,0,0,249.91,166.6c-8.1-.632-12.843,9.609-19.05,7.908" transform="translate(-181.79 -147.835)" fill="none" stroke="#263238" stroke-linecap="round" stroke-linejoin="round" stroke-width="0.48"/>
          <path id="패스_478" data-name="패스 478" d="M283.693,186.862s2.88-11.892-7.1-14.317-14.477,3.453-16.161,9.929,2.526,15.5,11.6,14.005S283.331,189.684,283.693,186.862Z" transform="translate(-186.399 -148.689)" fill="#2e353a"/>
          <path id="패스_479" data-name="패스 479" d="M291.662,202.375c8.2-3.815,18.983-12.169,18.781-15.21s-8.472-23.5-8.472-23.5a6.444,6.444,0,0,1-1.9-.91c-.842-.606-1.827-8.135-.606-8.54a37.131,37.131,0,0,1,6.308-1.019c1.011,0,.606,6.737.2,8.338,0,0,13.121,18.292,12.254,27.051S297.019,212.565,289.9,214.7,291.662,202.375,291.662,202.375Z" transform="translate(-190.672 -145.724)" fill="#e4897b"/>
          <path id="패스_480" data-name="패스 480" d="M186.81,328.972l2.324-4.952,7.268,2.425,6.67,2.24-1.8,6.325-7.664-3.192Z" transform="translate(-174.838 -172.14)" fill="#e4897b"/>
          <path id="패스_481" data-name="패스 481" d="M187.708,322.156c.539.27-3.04,6.737-3.04,6.737s-6.139,2.156-8.961,5.718-4.211.194-2.072-4.287l5.2-11.041C180.339,316.1,182.107,319.369,187.708,322.156Z" transform="translate(-172.594 -171.187)" fill="#2e353a"/>
          <path id="패스_482" data-name="패스 482" d="M183.568,334.939a.464.464,0,0,1-.152,0,.707.707,0,0,1-.64-.5c-.236-.926,1.853-2.695,2.274-3.04a.16.16,0,0,1,.084-.042h0a.285.285,0,0,1,.118.042h0c.059.059,1.356,1.356,1.305,2.442a1.154,1.154,0,0,1-.43.842.674.674,0,0,1-.775.168c-.337-.185-.472-.842-.505-1.508a3.049,3.049,0,0,1-.842,1.423A.842.842,0,0,1,183.568,334.939Zm1.305-2.889c-.884.792-1.828,1.844-1.684,2.282,0,0,.042.152.337.21a.421.421,0,0,0,.32-.084A5.139,5.139,0,0,0,184.874,332.051Zm.455-.059c-.093,1.171,0,2.375.278,2.527.084.051.244-.067.328-.135a.758.758,0,0,0,.295-.573A3.3,3.3,0,0,0,185.328,331.992Z" transform="translate(-174.198 -173.295)" fill="#ff615b"/>
          <path id="패스_483" data-name="패스 483" d="M194.7,332.186l2.813-5.356,6.737,2.265-1.769,6.342Z" transform="translate(-176.083 -172.581)" opacity="0.2"/>
          <path id="패스_484" data-name="패스 484" d="M274.043,290.82c-3.049,13.205-16.684,58.27-37.9,56.586s-36.736-13.357-37.157-18.68,1.213-8.253,6.5-8.27,20.81,4.75,27.573,4.27,13.087-29.2,13.087-29.2Z" transform="translate(-176.75 -166.884)" fill="#ff615b"/>
          <path id="패스_485" data-name="패스 485" d="M274.043,290.82c-3.049,13.205-16.684,58.27-37.9,56.586s-36.736-13.357-37.157-18.68,1.213-8.253,6.5-8.27,20.81,4.75,27.573,4.27,13.087-29.2,13.087-29.2Z" transform="translate(-176.75 -166.884)" opacity="0.4"/>
          <path id="패스_486" data-name="패스 486" d="M350.048,400.4l-5.028,2.173-3.84-6.636-3.52-6.089L343.2,386.3l3.621,7.462Z" transform="translate(-198.645 -181.732)" fill="#e4897b"/>
          <path id="패스_487" data-name="패스 487" d="M345,405.216c-.227-.556,6.737-3.066,6.737-3.066s6.022,2.451,10.5,1.684,3.259,2.619-1.288,4.581l-11.235,4.851C346.481,414.656,347.315,411.01,345,405.216Z" transform="translate(-199.803 -184.234)" fill="#2e353a"/>
          <path id="패스_488" data-name="패스 488" d="M354.85,402.289a4.718,4.718,0,0,0-.514.076h-.109a.57.57,0,0,1-.177-.093v-.067a.067.067,0,0,0,0-.051v-.05h0s.042-.051.042-.076h0c0-.076-.093-1.912.665-2.695a1.12,1.12,0,0,1,.9-.354q.573,0,.707.379c.135.362-.194.926-.623,1.465a3.1,3.1,0,0,1,1.6-.5.843.843,0,0,1,.564.3.783.783,0,0,1,.152.842C357.654,402.155,355.793,402.289,354.85,402.289Zm2.358-1.583a5.355,5.355,0,0,0-2.3,1.112c1.187,0,2.594-.177,2.8-.573,0,0,.067-.143-.11-.379a.4.4,0,0,0-.3-.152Zm-1.575-1.684c-.227,0-.413.261-.564.421a3.453,3.453,0,0,0-.531,2.055c.842-.842,1.583-1.9,1.465-2.215a.505.505,0,0,0-.337-.261Z" transform="translate(-201.232 -183.733)" fill="#ff615b"/>
          <path id="패스_489" data-name="패스 489" d="M346.9,393.928l-5.651,2.156-3.554-6.165,5.533-3.579Z" transform="translate(-198.65 -181.738)" opacity="0.2"/>
          <path id="패스_490" data-name="패스 490" d="M255.895,259.72s-11.79,17.5-9.357,30.537c2.863,15.387,39.919,32.71,50.025,40.366s14.839,36.567,27.421,42.109l6.847-2.451s3.487-4.817.884-13.012c-10.948-34.361-19.993-50.783-50.211-71.358,0,0,1.988-16.658,1.154-25.1Z" transform="translate(-184.212 -161.755)" fill="#ff615b"/>
          <path id="패스_491" data-name="패스 491" d="M255.895,259.72s-11.79,17.5-9.357,30.537c2.863,15.387,39.919,32.71,50.025,40.366s14.839,36.567,27.421,42.109l6.847-2.451s3.487-4.817.884-13.012c-10.948-34.361-19.993-50.783-50.211-71.358,0,0,1.988-16.658,1.154-25.1Z" transform="translate(-184.212 -161.755)" opacity="0.3"/>
          <path id="패스_492" data-name="패스 492" d="M328.389,371.592l-1.684.606c-3.823-4.868-6.948-13.643-10.224-22.857-3.478-9.761-7.074-19.85-11.31-23.859-2.948-2.788-9.483-7.175-17.054-12.262-15.454-10.384-32.98-22.149-34.15-29.325-1.238-7.63,2.661-18.528,4.994-24.086l1.8.076c-2.215,5.247-6.342,16.347-5.129,23.741,1.053,6.451,19.757,19.025,33.418,28.2,7.639,5.129,14.224,9.55,17.282,12.439,4.522,4.287,8.026,14.107,11.731,24.516C321.264,357.764,324.565,367.036,328.389,371.592Z" transform="translate(-185.399 -161.769)" fill="#ff615b"/>
          <path id="패스_493" data-name="패스 493" d="M285.5,286.892s-6.207-4.059-14-9.112l11.369,4.556a46.689,46.689,0,0,0,3.967-16.406A199.46,199.46,0,0,1,285.5,286.892Z" transform="translate(-188.204 -163.13)" opacity="0.1"/>
          <path id="패스_494" data-name="패스 494" d="M257.042,251.005l26.95,2.762s6.426-24.76,6.586-45.545c0,0-10.325,3.369-19.606,2.24A51.427,51.427,0,0,1,253.48,204.5S257.851,231.61,257.042,251.005Z" transform="translate(-185.36 -153.6)" fill="#2e353a"/>
          <path id="패스_495" data-name="패스 495" d="M275.956,215.136c-6.417-1.684-8.026-4.7-8.026-4.7,4.64-3.369,2.063-10.586,2.063-10.586l7.672,2.468a21.935,21.935,0,0,0-.733,3.268c-.665,4.758,1.482,5.053,1.482,5.053C279.459,213.451,275.956,215.136,275.956,215.136Z" transform="translate(-187.64 -152.915)" fill="#e4897b"/>
          <path id="패스_496" data-name="패스 496" d="M278.052,202.318a21.954,21.954,0,0,0-.733,3.268c-5.306-.682-6.94-5.735-6.94-5.735Z" transform="translate(-188.027 -152.923)" opacity="0.2"/>
          <path id="패스_497" data-name="패스 497" d="M275.842,176.046c6.872.5,8.818,4.337,8.809,11.454,0,8.9-2.425,15.05-10.889,12.54C262.274,196.62,264.422,175.22,275.842,176.046Z" transform="translate(-187.358 -149.326)" fill="#e4897b"/>
          <path id="패스_498" data-name="패스 498" d="M282.866,188.82a14.244,14.244,0,0,0,1.794,2.99,1.9,1.9,0,0,1-1.87.648Z" transform="translate(-189.986 -151.346)" fill="#de5753"/>
          <path id="패스_499" data-name="패스 499" d="M277.674,187.591c0,.564-.354,1-.733.985s-.657-.488-.632-1.053.354-1.011.733-.994S277.733,187.018,277.674,187.591Z" transform="translate(-188.963 -150.984)" fill="#2e353a"/>
          <path id="패스_500" data-name="패스 500" d="M277,186.471l1.255-.421S277.581,187.061,277,186.471Z" transform="translate(-189.072 -150.909)" fill="#2e353a"/>
          <path id="패스_501" data-name="패스 501" d="M286.033,187.853c0,.573-.362,1.011-.733.994s-.665-.488-.64-1.053.362-1.011.733-.994S286.058,187.288,286.033,187.853Z" transform="translate(-190.28 -151.027)" fill="#2e353a"/>
          <path id="패스_502" data-name="패스 502" d="M285.35,186.741l1.246-.421S285.939,187.322,285.35,186.741Z" transform="translate(-190.39 -150.951)" fill="#2e353a"/>
          <path id="패스_503" data-name="패스 503" d="M277.687,182.128a3.6,3.6,0,0,0-3.057.842" transform="translate(-188.698 -150.28)" fill="none" stroke="#263238" stroke-linecap="round" stroke-linejoin="round" stroke-width="0.696"/>
          <path id="패스_504" data-name="패스 504" d="M284.21,182.221a3.234,3.234,0,0,1,2.7.758" transform="translate(-190.21 -150.296)" fill="none" stroke="#263238" stroke-linecap="round" stroke-linejoin="round" stroke-width="0.696"/>
          <path id="패스_505" data-name="패스 505" d="M280.5,195.967a16.785,16.785,0,0,0-.977,2.324,3.644,3.644,0,0,1-.438-.076c-1.988-.345-2.8-1.162-3.091-1.962a2.737,2.737,0,0,1-.109-1.221,2.458,2.458,0,0,1,.177-.682,9.6,9.6,0,0,0,3.756,1.482C280.231,195.925,280.5,195.967,280.5,195.967Z" transform="translate(-188.892 -152.072)" fill="#2e353a"/>
          <path id="패스_506" data-name="패스 506" d="M279.823,195.832l-.3.682c-1.87-.328-3.141-.842-3.63-1.482a2.459,2.459,0,0,1,.177-.682A9.6,9.6,0,0,0,279.823,195.832Z" transform="translate(-188.897 -152.218)" fill="#fff"/>
          <path id="패스_507" data-name="패스 507" d="M279.111,198.572c-1.988-.345-2.8-1.162-3.091-1.962a6.417,6.417,0,0,1,2.131.842,2.4,2.4,0,0,1,.96,1.12Z" transform="translate(-188.917 -152.424)" fill="#de5753"/>
          <path id="패스_508" data-name="패스 508" d="M267.173,186.552s3.621-5.415,3.453-9.811c0,0,14.022-4.581,13.694,9.264,0,0,2.223-12.186-9.576-13.315s-12.995,16.17-7.268,21.762C267.476,194.486,264.933,189.938,267.173,186.552Z" transform="translate(-187.043 -148.792)" fill="#2e353a"/>
          <path id="패스_509" data-name="패스 509" d="M268.074,190.44a3.023,3.023,0,0,0-3.049-2.99c-2.148.076-3.478,4.379,1.743,5.811C267.476,193.446,267.964,192.739,268.074,190.44Z" transform="translate(-186.883 -151.129)" fill="#e4897b"/>
          <path id="패스_510" data-name="패스 510" d="M250.077,195s4.834,8.127,2.215,16.945c0,0-18.637-20.743-20.322-25.476s10.451-31.683,10.451-31.683-2.03-5.685-1.609-6.948,5.685-4.211,6.948-3.369.842,10.106.211,11.369l-.632,1.263s-6.485,24.423-5.668,26.2S250.077,195,250.077,195Z" transform="translate(-181.94 -144.323)" fill="#e4897b"/>
          <path id="패스_511" data-name="패스 511" d="M278.91,175.7s-7.377,11.049-17.172,9.264c0,0-.48-8.371,6.072-10.207A14.848,14.848,0,0,1,278.91,175.7Z" transform="translate(-186.662 -149.022)" fill="#2e353a"/>
          <path id="패스_512" data-name="패스 512" d="M279.567,176s3.074,4.615-5.3,7.672" transform="translate(-188.641 -149.322)" fill="none" stroke="#263238" stroke-linecap="round" stroke-linejoin="round" stroke-width="0.48"/>
          <path id="패스_513" data-name="패스 513" d="M284.37,175.348s3.529,3.234,4.986-1.4" transform="translate(-190.235 -148.999)" fill="none" stroke="#263238" stroke-linecap="round" stroke-linejoin="round" stroke-width="0.48"/>
          <path id="패스_514" data-name="패스 514" d="M286.434,245.609l.766-1.289s-.943-.286-2.577-.665c.691-4.708,2.8-22.52-2.358-34.075l-.96.733s2.392,3.663,2.636,10.847l-17.854-.109s-2.046-10-4.581-13.071l-.64.295a74.4,74.4,0,0,1,3.756,33.611,52.212,52.212,0,0,0-8.371,1.171l.682,1.263a104.115,104.115,0,0,1,15.159-.606l9.382.842C283.132,244.842,284.808,245.179,286.434,245.609Z" transform="translate(-185.797 -154.151)" fill="#ff615b"/>
          <path id="패스_515" data-name="패스 515" d="M286.434,245.609l.766-1.289s-.943-.286-2.577-.665c.691-4.708,2.8-22.52-2.358-34.075l-.96.733s2.392,3.663,2.636,10.847l-17.854-.109s-2.046-10-4.581-13.071l-.64.295a74.4,74.4,0,0,1,3.756,33.611,52.212,52.212,0,0,0-8.371,1.171l.682,1.263a104.115,104.115,0,0,1,15.159-.606l9.382.842C283.132,244.842,284.808,245.179,286.434,245.609Z" transform="translate(-185.797 -154.151)" fill="#fff" opacity="0.6"/>
          <path id="패스_516" data-name="패스 516" d="M278.461,237.438a3.369,3.369,0,0,1-.691,2.282,2.7,2.7,0,0,1-2.139.783,2.636,2.636,0,0,1-2.063-.766,3.141,3.141,0,0,1-.7-2.2v-.3h1.794v.421a1.23,1.23,0,0,0,.261.9.935.935,0,0,0,.7.261.952.952,0,0,0,.758-.3,1.786,1.786,0,0,0,.27-1.145v-2.156a1.743,1.743,0,0,1-1.684,1.044,1.794,1.794,0,0,1-1.541-.691,3.293,3.293,0,0,1-.514-2v-2.122a3.1,3.1,0,0,1,.724-2.2,3.225,3.225,0,0,1,4.211,0,3.1,3.1,0,0,1,.724,2.2Zm-2.813-2.863a.935.935,0,0,0,.7-.261,1.23,1.23,0,0,0,.261-.9V231.29a1.213,1.213,0,0,0-.261-.893,1.1,1.1,0,0,0-1.4,0,1.213,1.213,0,0,0-.261.893v2.122a1.229,1.229,0,0,0,.261.9A.934.934,0,0,0,275.648,234.575Z" transform="translate(-188.419 -157.347)" fill="#ff615b"/>
          <path id="패스_517" data-name="패스 517" d="M286.381,237.438a3.368,3.368,0,0,1-.691,2.282,2.7,2.7,0,0,1-2.139.783,2.636,2.636,0,0,1-2.063-.766,3.141,3.141,0,0,1-.7-2.2v-.3h1.752v.421a1.229,1.229,0,0,0,.261.9.935.935,0,0,0,.7.261.952.952,0,0,0,.758-.3,1.785,1.785,0,0,0,.27-1.145v-2.156a1.743,1.743,0,0,1-1.684,1.044,1.794,1.794,0,0,1-1.541-.691,3.293,3.293,0,0,1-.514-2v-2.122a3.1,3.1,0,0,1,.724-2.2,3.226,3.226,0,0,1,4.211,0,3.1,3.1,0,0,1,.724,2.2Zm-2.813-2.863a.935.935,0,0,0,.7-.261,1.23,1.23,0,0,0,.261-.9V231.29a1.213,1.213,0,0,0-.261-.893,1.1,1.1,0,0,0-1.4,0,1.213,1.213,0,0,0-.261.893v2.122a1.23,1.23,0,0,0,.261.9A.935.935,0,0,0,283.568,234.575Z" transform="translate(-189.668 -157.347)" fill="#ff615b"/>
        </g>
      </g>
    </g>
    <g id="Fitness_tracker-pana" data-name="Fitness tracker-pana" transform="translate(898.159 349.062)">
      <g id="freepik--Character--inject-16">
        <path id="패스_697" data-name="패스 697" d="M221.227,329.875c-.31.03-5.508,17.325-5.508,17.325s-18.061,15.586-20.778,21.52-12.121,24.243-12.121,24.243l10.881,5.471L224.412,361.8s3.4-1.483,4.638-3.465,15.58-25.106,15.58-25.106l-4.863-10.5Z" transform="translate(-178.577 -182.709)" fill="#efa68b"/>
        <path id="패스_698" data-name="패스 698" d="M305.318,326.853s14.644,11.039,16.121,13.167c.267.389,0,1.568,0,1.568s-8.194,5.058-10.456,12.03S299.13,384.3,299.13,384.3s10.109,6.45,10.456,5.751,24.267-35.136,26.358-37.927,5.191-6.687,5.714-10.182-.693-10.115-6.274-16.042-13.234-14.638-13.234-14.638l-20.225,4.006-.705,7.994,4.1,3.568" transform="translate(-224.182 -178.215)" fill="#efa68b"/>
        <path id="패스_699" data-name="패스 699" d="M252.027,280.145s1.313,9.617,4.644,13.921,12.061,12.2,16.365,13.447,12.687,7.064,12.687,7.064l1.593-1.216-2.492-7.094,8.182,3.191,13.982-12.091s-11.659-11.07-14.638-14.48a107.939,107.939,0,0,0-7.775-7.726l-30.395,3.374-2.389,2.219" transform="translate(-205.62 -164.394)" fill="#263238"/>
        <path id="패스_700" data-name="패스 700" d="M248.732,287.87s.541,9.4,1.878,11.769h0L243,316.374l20.863-1.86s4.444,7.751,4.547,7.957,7.568-6.729,7.568-6.729L271.2,295.615Z" transform="translate(-202.174 -169.358)" fill="#263238"/>
        <path id="패스_701" data-name="패스 701" d="M286.131,320.8a4.05,4.05,0,0,1-.413-.225l-1.173-.687-4.255-2.62-2.924-1.824c-1.058-.644-2.152-1.386-3.374-2.043-.608-.334-1.216-.663-1.9-.967s-1.35-.535-2.067-.821a31.219,31.219,0,0,1-4.255-2.073,28.475,28.475,0,0,1-6.985-5.763,25.706,25.706,0,0,1-4.049-6.2,23.529,23.529,0,0,1-1.617-4.735c-.116-.578-.207-1.027-.243-1.337a2.428,2.428,0,0,1-.049-.468,2.805,2.805,0,0,1,.116.462c.055.3.158.748.3,1.319a24.97,24.97,0,0,0,1.7,4.663,26.143,26.143,0,0,0,4.067,6.079,28.572,28.572,0,0,0,6.967,5.69,31.275,31.275,0,0,0,4.182,2.055c.7.28,1.41.523,2.079.839s1.3.644,1.909.985c1.216.675,2.322,1.423,3.374,2.073l2.906,1.854,4.194,2.705,1.131.748a1.9,1.9,0,0,1,.383.292Z" transform="translate(-206.028 -170.605)" fill="#455a64"/>
        <path id="패스_702" data-name="패스 702" d="M299.6,313.541a2.752,2.752,0,0,1-.383-.195l-1.058-.608c-.918-.529-2.231-1.319-3.842-2.322-3.216-2-7.587-4.863-12.255-8.3s-8.735-6.687-11.617-9.173c-1.441-1.216-2.59-2.237-3.374-2.954l-.894-.827c-.207-.188-.31-.292-.3-.3a2.508,2.508,0,0,1,.34.255l.936.784,3.435,2.875c2.912,2.432,7,5.678,11.659,9.088s9.009,6.316,12.188,8.365l3.781,2.432,1.027.656A1.821,1.821,0,0,1,299.6,313.541Z" transform="translate(-211.144 -169.767)" fill="#fff"/>
        <path id="패스_703" data-name="패스 703" d="M302.914,311.4a1.731,1.731,0,0,1-.377-.195l-1.033-.608c-.894-.535-2.176-1.331-3.751-2.34-3.143-2.006-7.422-4.894-12-8.28s-8.584-6.644-11.422-9.07c-1.423-1.216-2.559-2.207-3.325-2.912l-.888-.808a1.927,1.927,0,0,1-.3-.3,1.831,1.831,0,0,1,.34.255l.924.766,3.392,2.833c2.869,2.377,6.894,5.6,11.465,8.985s8.821,6.292,11.933,8.352l3.7,2.432,1,.663A2.422,2.422,0,0,1,302.914,311.4Z" transform="translate(-212.69 -168.995)" fill="#fff"/>
        <path id="패스_704" data-name="패스 704" d="M340.9,362.761a13.271,13.271,0,0,0-2.383-1.319,13.533,13.533,0,0,0-2.675-.5,5.173,5.173,0,0,1,5.058,1.824Z" transform="translate(-238.576 -197.886)" fill="#995037"/>
        <path id="패스_705" data-name="패스 705" d="M250.976,385.053c-.043.073-.48-.122-.967-.438s-.851-.608-.8-.7.48.122.973.432S251.025,384.98,250.976,385.053Z" transform="translate(-204.606 -206.88)" fill="#995037"/>
        <path id="패스_706" data-name="패스 706" d="M323.222,229.56l12,3.83-3.131,8.164s-13.666-.432-15.97-.93-2.261-4.255-2.261-4.255Z" transform="translate(-229.958 -146.668)" fill="#efa68b"/>
        <path id="패스_707" data-name="패스 707" d="M345.815,234.073l3.891-4.353,4.425.055a25.632,25.632,0,0,0,3.842,1.277,1.289,1.289,0,0,1-.815,1.07s1.568,0,1.915.529-.249,1.581-.748,2.188a5.155,5.155,0,0,1,.14,1.538,2.644,2.644,0,0,1-.547,1.447l-.894.48a1.216,1.216,0,0,1,.31,1.313,3.544,3.544,0,0,1-1.289,1.331s.815.334.559,1.009a1.771,1.771,0,0,1-1,1.216,25.962,25.962,0,0,1-6.34.608c-1.033-.249-5.368-2.122-5.368-2.122Z" transform="translate(-241.737 -146.728)" fill="#efa68b"/>
        <path id="패스_708" data-name="패스 708" d="M363.629,236.66c0,.049-.669-.085-1.745-.188-.535-.049-1.173-.091-1.884-.085h-1.118a1.775,1.775,0,0,1-1.252-.3.924.924,0,0,1-.34-.608,1.094,1.094,0,0,1,.17-.657,1.562,1.562,0,0,1,1-.687,5.958,5.958,0,0,1,1.027-.134l.888-.067a9.655,9.655,0,0,1,1.757-.061,9.829,9.829,0,0,1-1.739.28c-.529.085-1.216.1-1.86.268a1.252,1.252,0,0,0-.8.559.663.663,0,0,0,.1.894,1.5,1.5,0,0,0,1.039.237H360a13.986,13.986,0,0,1,1.915.158A6.078,6.078,0,0,1,363.629,236.66Z" transform="translate(-246.986 -148.355)" fill="#995037"/>
        <path id="패스_709" data-name="패스 709" d="M361.766,241.09c0,.043-.5-.061-1.313-.128a13,13,0,0,1-3.161-.5,6.88,6.88,0,0,1-.888-.292.833.833,0,0,1-.383-.359,1.34,1.34,0,0,1-.1-.456.949.949,0,0,1,.043-.444,1.173,1.173,0,0,1,.182-.359,1.824,1.824,0,0,1,.5-.5,1.732,1.732,0,0,1,.954-.3c.237,0,.365.049.359.067a2.432,2.432,0,0,0-1.179.419,1.6,1.6,0,0,0-.413.462,1.258,1.258,0,0,0-.14.3.976.976,0,0,0,0,.334,1.314,1.314,0,0,0,.085.346.474.474,0,0,0,.243.213,8.044,8.044,0,0,0,.839.267,17.345,17.345,0,0,0,3.106.608A3.423,3.423,0,0,1,361.766,241.09Z" transform="translate(-246.448 -149.87)" fill="#995037"/>
        <path id="패스_710" data-name="패스 710" d="M360.463,245.793a10.86,10.86,0,0,1-1.824-.438l-1.964-.559a4.619,4.619,0,0,1-1.167-.438,1.3,1.3,0,0,1-.462-.553.894.894,0,0,1,.043-.766,1.447,1.447,0,0,1,1.216-.669c.438,0,.833,0,1.216.036a14.578,14.578,0,0,1,2.043.255,8.3,8.3,0,0,1,1.331.4c.3.122.462.213.45.231a17.793,17.793,0,0,0-1.824-.4,17.125,17.125,0,0,0-2.012-.195c-.383,0-.8-.036-1.185,0a1.143,1.143,0,0,0-.967.511.7.7,0,0,0,.316.906,4.255,4.255,0,0,0,1.076.419l1.945.608A10.734,10.734,0,0,1,360.463,245.793Z" transform="translate(-246.082 -151.675)" fill="#995037"/>
        <path id="패스_711" data-name="패스 711" d="M359,248.958a4.76,4.76,0,0,1-1.6-.085,11.023,11.023,0,0,1-1.7-.413,1.757,1.757,0,0,1-.93-.578,1.2,1.2,0,0,1,.887-1.9,2.978,2.978,0,0,1,1.064.122,16.018,16.018,0,0,1,1.66.523,5.715,5.715,0,0,1,1.453.681,14.361,14.361,0,0,1-1.526-.474c-.468-.14-1.027-.3-1.654-.45a3.038,3.038,0,0,0-.96-.1.942.942,0,0,0-.742.517.863.863,0,0,0,.073.881,1.489,1.489,0,0,0,.772.48,13.847,13.847,0,0,0,1.647.468C358.4,248.861,359.005,248.91,359,248.958Z" transform="translate(-245.912 -153.084)" fill="#995037"/>
        <path id="패스_712" data-name="패스 712" d="M362.116,233.615a6.561,6.561,0,0,1-3.082.353,3.738,3.738,0,0,1-.608-.061c-.1,0-.213-.049-.292-.055h-.1a.146.146,0,0,0-.073,0,5.6,5.6,0,0,1-.8.553,1.708,1.708,0,0,1-.875.286,7.864,7.864,0,0,1,.76-.48,7.005,7.005,0,0,0,.766-.608.566.566,0,0,1,.195-.073h.182l.286.043c.195.03.4.043.608.055.839.043,1.611,0,2.158,0A4.857,4.857,0,0,1,362.116,233.615Z" transform="translate(-246.591 -148.23)" fill="#995037"/>
        <path id="패스_713" data-name="패스 713" d="M355.284,237.619c-.042,0,.073-.231.152-.608a13.5,13.5,0,0,0,.194-1.441,3.166,3.166,0,0,0-.188-1.386c-.134-.34-.292-.517-.255-.547s.249.1.456.444a2.656,2.656,0,0,1,.3,1.508,5.779,5.779,0,0,1-.3,1.489C355.509,237.5,355.314,237.649,355.284,237.619Z" transform="translate(-246.16 -148.267)" fill="#995037"/>
        <path id="패스_714" data-name="패스 714" d="M342.844,234.32l-2.024,9.033,1.848.067L345.3,235.1Z" transform="translate(-240.529 -148.528)" fill="#263238"/>
        <rect id="사각형_20" data-name="사각형 20" width="3.921" height="1.228" transform="translate(101.494 84.196) rotate(21.93)" fill="#263238"/>
        <path id="패스_715" data-name="패스 715" d="M323.255,100.4a3.1,3.1,0,0,1-1.319-5.2,6.316,6.316,0,0,1,2.535-1.271,2.693,2.693,0,0,1,1.891-.128,2.085,2.085,0,0,1,1,1.9,20.417,20.417,0,0,0-.085,2.28c.237-.237.687-.036.772.286a.9.9,0,0,1-.353.881,7.084,7.084,0,0,1-.851.523,1.258,1.258,0,0,0-.608.754" transform="translate(-232.757 -93.682)" fill="#263238"/>
        <path id="패스_716" data-name="패스 716" d="M325.654,105.115a2.431,2.431,0,0,1-.967.267.821.821,0,0,1-.8-.5.809.809,0,0,1,.274-.821,2.158,2.158,0,0,1,.821-.4,12.68,12.68,0,0,1,1.9-.432,1.757,1.757,0,0,1,.8,0,.638.638,0,0,1,.468.608c0,.328-.347.541-.65.681a8.9,8.9,0,0,1-2.389.693" transform="translate(-233.879 -97.408)" fill="#455a64"/>
        <path id="패스_717" data-name="패스 717" d="M314.475,131.052a47.91,47.91,0,0,1-1.526-8.091,16.693,16.693,0,0,1,1.216-8.073c.176-.383,1.6-2.912,2.006-2.839.292.049-.638,2.432-.511,2.705a14.085,14.085,0,0,1,1,8.34,37.129,37.129,0,0,1-2.219,7.97" transform="translate(-229.57 -100.883)" fill="#263238"/>
        <path id="패스_718" data-name="패스 718" d="M320.359,154.121c-4.255-.389-7.35-5.951-7.052-10.207l1.824-25.6c.267-6.9,4.5-12.492,11.386-12.036l.608.079a12.334,12.334,0,0,1,10.79,12.766c-.261,5.976-.608,12.571-1.064,15.738-.906,6.559-7.6,6.76-7.6,6.76s-.146,1.526-.3,3.465a7.836,7.836,0,0,1-8.511,7.173Z" transform="translate(-229.733 -98.609)" fill="#efa68b"/>
        <path id="패스_719" data-name="패스 719" d="M334.237,162.109a15.981,15.981,0,0,1-8.237-3.6s1.489,5.039,8.122,5.27Z" transform="translate(-234.718 -119.101)" fill="#995037"/>
        <path id="패스_720" data-name="패스 720" d="M346.523,133.654a.942.942,0,0,1-1.021.833.906.906,0,0,1-.863-.967.942.942,0,0,1,1.021-.833.906.906,0,0,1,.863.967Z" transform="translate(-242.026 -108.975)" fill="#263238"/>
        <path id="패스_721" data-name="패스 721" d="M348.548,130.826c-.128.109-.772-.5-1.787-.608s-1.824.286-1.9.152.1-.267.45-.462a2.559,2.559,0,0,1,1.544-.274,2.468,2.468,0,0,1,1.4.65C348.536,130.547,348.615,130.784,348.548,130.826Z" transform="translate(-242.105 -107.77)" fill="#263238"/>
        <path id="패스_722" data-name="패스 722" d="M330.023,132.244a.948.948,0,0,1-1.027.833.9.9,0,0,1-.857-.967.942.942,0,0,1,1.021-.833.906.906,0,0,1,.863.967Z" transform="translate(-235.556 -108.422)" fill="#263238"/>
        <path id="패스_723" data-name="패스 723" d="M332.2,129.467c-.128.109-.778-.5-1.787-.608s-1.824.292-1.9.152.1-.267.45-.462a2.608,2.608,0,0,1,1.544-.274,2.529,2.529,0,0,1,1.4.656C332.186,129.188,332.265,129.419,332.2,129.467Z" transform="translate(-235.694 -107.238)" fill="#263238"/>
        <path id="패스_724" data-name="패스 724" d="M339,138.3a6.433,6.433,0,0,1,1.678-.091c.261,0,.511,0,.608-.188a1.288,1.288,0,0,0-.079-.784l-.517-2.061a34.928,34.928,0,0,1-1.07-5.343,34.623,34.623,0,0,1,1.5,5.246c.17.723.328,1.41.48,2.067a1.489,1.489,0,0,1,0,1.027.638.638,0,0,1-.468.328,2.2,2.2,0,0,1-.444,0A6.819,6.819,0,0,1,339,138.3Z" transform="translate(-239.816 -107.856)" fill="#263238"/>
        <path id="패스_725" data-name="패스 725" d="M333.763,144.29c.164,0,.03,1.112.869,2.006s2.024.918,2.012,1.076c0,.067-.286.176-.778.128a2.754,2.754,0,0,1-1.69-.833,2.432,2.432,0,0,1-.656-1.672C333.532,144.533,333.69,144.278,333.763,144.29Z" transform="translate(-237.667 -113.526)" fill="#263238"/>
        <path id="패스_726" data-name="패스 726" d="M332.335,122.817c-.134.261-1.125,0-2.328,0s-2.2.2-2.322-.067c-.055-.128.14-.365.559-.608a4.043,4.043,0,0,1,3.55.055C332.207,122.446,332.4,122.69,332.335,122.817Z" transform="translate(-235.375 -104.691)" fill="#263238"/>
        <path id="패스_727" data-name="패스 727" d="M348.8,125.167c-.207.207-.875-.122-1.708-.237s-1.562-.036-1.7-.3c-.055-.128.085-.34.419-.517a2.377,2.377,0,0,1,1.435-.207,2.432,2.432,0,0,1,1.307.608C348.8,124.821,348.858,125.07,348.8,125.167Z" transform="translate(-242.318 -105.521)" fill="#263238"/>
        <path id="패스_728" data-name="패스 728" d="M313.079,133.9c-.1-.061-4.346-1.9-4.766,2.608s4.195,4,4.213,3.872S313.079,133.9,313.079,133.9Z" transform="translate(-227.772 -109.285)" fill="#efa68b"/>
        <path id="패스_729" data-name="패스 729" d="M312.04,139.457a1.468,1.468,0,0,1-.225.1.8.8,0,0,1-.608-.043,1.963,1.963,0,0,1-.742-1.824,2.651,2.651,0,0,1,.328-1.106.9.9,0,0,1,.644-.547.407.407,0,0,1,.444.261c.049.128,0,.219.036.225s.1-.067.085-.255a.517.517,0,0,0-.152-.3.608.608,0,0,0-.425-.158,1.113,1.113,0,0,0-.882.608,2.619,2.619,0,0,0-.389,1.216,2.016,2.016,0,0,0,.96,2.049.845.845,0,0,0,.729-.049C312.022,139.573,312.053,139.463,312.04,139.457Z" transform="translate(-228.503 -110.201)" fill="#995037"/>
        <path id="패스_730" data-name="패스 730" d="M335.537,110.823c.766-.346-1.216-2.894-2.954-3.86-2.608-1.453-6.687-2.559-9.246-2.061-3.082.608-5.714,1.891-7.453,4.5a17.793,17.793,0,0,0-2.729,8.881,5.38,5.38,0,0,0,.407,2.808c.541,1.052,1.7,1.781,1.532,3.155a1.891,1.891,0,0,0,.353,1.416c.754.948,1.824.207,2.365-.608a13.031,13.031,0,0,0,1.684-5.8,13.373,13.373,0,0,0,.079-4.316c-.158-.772-.456-1.514-.571-2.292a2.711,2.711,0,0,1,.511-2.225,2.752,2.752,0,0,1,.4-.34,4.73,4.73,0,0,1,4.748-.5c2.432,1.112,6.687,2.821,7.9,2.055a6.949,6.949,0,0,0,2.194-1.884Z" transform="translate(-229.665 -98.034)" fill="#263238"/>
        <path id="패스_731" data-name="패스 731" d="M341.22,106.36a4.749,4.749,0,0,1,.723.711,6.961,6.961,0,0,1,1.283,2.109,4.1,4.1,0,0,1,.134,2.474,1.721,1.721,0,0,1-.492.9c-.024-.024.158-.359.274-.954a4.467,4.467,0,0,0-.213-2.31,9.258,9.258,0,0,0-1.161-2.085A3.647,3.647,0,0,1,341.22,106.36Z" transform="translate(-240.686 -98.653)" fill="#455a64"/>
        <path id="패스_732" data-name="패스 732" d="M345.274,110.34c.036,0,.158.213.231.608a3.543,3.543,0,0,1-.122,1.568,3.433,3.433,0,0,1-.809,1.356c-.286.286-.511.4-.535.365a7.331,7.331,0,0,0,1.039-1.824A7.234,7.234,0,0,0,345.274,110.34Z" transform="translate(-241.792 -100.214)" fill="#455a64"/>
        <path id="패스_733" data-name="패스 733" d="M322.944,100.445a1.143,1.143,0,0,1-.334-.292,2.432,2.432,0,0,1-.1-2.851,2.541,2.541,0,0,1,1.9-1.094.766.766,0,0,1,.608.225.857.857,0,0,1,.152.608,9.028,9.028,0,0,1-.14,1.033,8.516,8.516,0,0,1-.5,1.69,4.427,4.427,0,0,1-.809,1.4c-.043-.03.267-.559.608-1.483a10.084,10.084,0,0,0,.426-1.66,9.9,9.9,0,0,0,.115-1,.608.608,0,0,0-.079-.4.486.486,0,0,0-.389-.115,2.286,2.286,0,0,0-1.678.948,2.176,2.176,0,0,0-.4,1.55A3.228,3.228,0,0,0,322.944,100.445Z" transform="translate(-233.188 -94.672)" fill="#455a64"/>
        <path id="패스_734" data-name="패스 734" d="M276.358,163.2c.553-.231,6.079-2.322,8.085-2.827s4.973-.888,4.973-.888,7.611,4.742,9.118,5.587,6.079,1.106,6.079,1.106,0,8.346-.486,11.386a203.266,203.266,0,0,1-5.568,24.134c-3.374,11.313-5.568,14.687-5.568,14.687s.468,4.863-.948,7.9-3.106,6.079-3.106,6.079l-1.854,1.35s-6.079-2.535-11.647,0-19.252,7.793-22.292,7.106-1.69-3.714-1.015-6.584,6.583-12.827,6.583-12.827l.675-3.544,1.3-1.3,4.96-30.322S274.929,163.788,276.358,163.2Z" transform="translate(-205.404 -119.282)" fill="#ff615b"/>
        <path id="패스_735" data-name="패스 735" d="M285.94,185.408s2.432,8.626,8.292,9.574c5.137.833,7.739-.608,8.979-3.9s2.273-17.848,2.273-17.848.14-5.368-1.508-6.456S285.94,185.408,285.94,185.408Z" transform="translate(-219.01 -122.158)" fill="#efa68b"/>
        <path id="패스_736" data-name="패스 736" d="M271,250.506s.608,4.043,1.538,4.985c0,0,7.052,8.128,7.392,8.468s1.489.936,2.085.608a1.824,1.824,0,0,0,.681-1.277s1.824,1.216,2.638.766a1.058,1.058,0,0,0,.553-1.216s1.4.723,2.3-.128a2.857,2.857,0,0,0,.717-2.213s1.216.936,1.915.17a4.439,4.439,0,0,0,.894-2.164h0l-1.021-1.824s-2.888-4-3.781-5.106-3.039-2-4.6-2.511-5.2-4.565-5.2-4.565Z" transform="translate(-213.152 -152.482)" fill="#efa68b"/>
        <path id="패스_737" data-name="패스 737" d="M280.243,163.8a13.374,13.374,0,0,0-10.049.152c-5.082,2.085-13.684,5.617-14.918,6.079-1.769.681-20.559,6.808-22.875,14.431,0,0-1.179,2.346,0,4.219,1.7,2.7,6.687,14.438,14.59,21.106l8.669,8.723,6.207-5.872s-7.374-13.331-9.55-18.5-3.331-6.389-3.331-6.389,7.629-1.775,12.529-3,11.027-3.131,11.027-3.131,8.578-3.131,10.213-5.587,2.723-8.3,0-10.754A8.512,8.512,0,0,0,280.243,163.8Z" transform="translate(-197.813 -120.634)" fill="#efa68b"/>
        <path id="패스_738" data-name="패스 738" d="M251.24,180.33s6.377,8.966,6.96,10.942l.577,1.994a1.07,1.07,0,0,0,1.307.432c.8-.359,5.076-1.884,5.076-1.884a9.747,9.747,0,0,0-1.094-6.881,77.884,77.884,0,0,0-5.131-7.982A8.012,8.012,0,0,0,251.24,180.33Z" transform="translate(-205.405 -126.119)" fill="#263238"/>
        <path id="패스_739" data-name="패스 739" d="M248.93,201.917a9.246,9.246,0,0,1,7.137,1,25.37,25.37,0,0,0-3.508-.912A26.922,26.922,0,0,0,248.93,201.917Z" transform="translate(-204.499 -135.777)" fill="#995037"/>
        <path id="패스_740" data-name="패스 740" d="M294.937,195.763a6.212,6.212,0,0,0-1.392-.529,5.265,5.265,0,0,0-1.6-.055,16.65,16.65,0,0,0-1.964.353c-1.4.316-2.675.577-3.6.754a7.107,7.107,0,0,1-1.508.219,7.524,7.524,0,0,1,1.465-.438c.906-.231,2.17-.529,3.568-.839a13.516,13.516,0,0,1,2.012-.34,5.191,5.191,0,0,1,1.678.128A2.353,2.353,0,0,1,294.937,195.763Z" transform="translate(-218.591 -133.15)" fill="#995037"/>
        <path id="패스_741" data-name="패스 741" d="M310.738,168.13a5.66,5.66,0,0,1,.717,1.307,7.161,7.161,0,0,1,.748,3.532,7.069,7.069,0,0,1-.5,1.945,8.357,8.357,0,0,1-.723,1.459c-.5.8-1.027,1.106-1.046,1.07a9.858,9.858,0,0,0,.857-1.185,10.089,10.089,0,0,0,.638-1.447,7.365,7.365,0,0,0,.462-1.866,7.82,7.82,0,0,0-.608-3.422,9.16,9.16,0,0,1-.541-1.392Z" transform="translate(-228.417 -122.715)" fill="#995037"/>
        <path id="패스_742" data-name="패스 742" d="M245.421,183.549l4.213,6.608a.79.79,0,0,0,1,.286l14.887-7.252a.784.784,0,0,0,.322-1.125l-4.219-6.608a.772.772,0,0,0-1-.28l-14.906,7.252a.784.784,0,0,0-.3,1.119Z" transform="translate(-203.075 -125.427)" fill="#263238"/>
        <path id="패스_743" data-name="패스 743" d="M251.786,189.791l-3.526-5.581,13.538-6.96,3.69,5.787Z" transform="translate(-204.236 -126.269)" fill="#455a64"/>
        <path id="패스_744" data-name="패스 744" d="M263.835,180a9.245,9.245,0,0,1-1.046,1.307c-.736.869-1.617,1.915-2.6,3.07l-2.547,3.112a9.816,9.816,0,0,1-1.1,1.264,8.575,8.575,0,0,1,.918-1.4c.608-.833,1.477-1.964,2.486-3.173s1.97-2.274,2.681-3.04a7.942,7.942,0,0,1,1.21-1.137Z" transform="translate(-207.483 -127.345)" fill="#fff"/>
        <path id="패스_745" data-name="패스 745" d="M260.194,184.187c.073.049-.231.608-.675,1.216s-.863,1.088-.936,1.033.231-.608.675-1.216S260.127,184.133,260.194,184.187Z" transform="translate(-208.28 -128.982)" fill="#fff"/>
        <path id="패스_746" data-name="패스 746" d="M309.593,433.224l-.346.857s12.061,11.8,11.076,14.589L291.66,436.628l5.435-8.918C300.529,431.491,303.854,433.132,309.593,433.224Z" transform="translate(-221.253 -223.875)" fill="#ff615b"/>
        <path id="패스_747" data-name="패스 747" d="M291.66,441.03l1.307-2.14,26.863,12.225s1.046,1.094.523,1.933Z" transform="translate(-221.253 -228.259)" fill="#e0e0e0"/>
        <path id="패스_748" data-name="패스 748" d="M318.586,438.073c-.067.134-.79-.1-1.672.067s-1.489.608-1.593.486.444-.833,1.508-1.009S318.672,437.957,318.586,438.073Z" transform="translate(-230.526 -227.746)" fill="#e0e0e0"/>
        <path id="패스_749" data-name="패스 749" d="M323.009,442.376c0,.152-.73.134-1.453.523s-1.125.96-1.258.9.1-.894,1.015-1.368S323.064,442.242,323.009,442.376Z" transform="translate(-232.469 -229.544)" fill="#e0e0e0"/>
        <path id="패스_750" data-name="패스 750" d="M325.075,448.322c-.14,0-.043-.8.638-1.423s1.465-.644,1.477-.5-.571.383-1.119.9S325.214,448.365,325.075,448.322Z" transform="translate(-234.334 -231.175)" fill="#e0e0e0"/>
        <path id="패스_751" data-name="패스 751" d="M319.93,435.409a.778.778,0,0,0,.1-.182,3.645,3.645,0,0,0,.194-.553,4.486,4.486,0,0,0,.03-2.164,4.554,4.554,0,0,0-.219-.693,2.431,2.431,0,0,0-.4-.705,1.038,1.038,0,0,0-.359-.274.644.644,0,0,0-.5,0,.948.948,0,0,0-.5.821,4.748,4.748,0,0,0,.3,1.909,3.374,3.374,0,0,0,1.216,1.684,1.927,1.927,0,0,0,1.046.3,4.551,4.551,0,0,0,1.015-.116,6.507,6.507,0,0,0,1.824-.608,1.045,1.045,0,0,0,.523-.8.693.693,0,0,0-.134-.474.771.771,0,0,0-.4-.261,1.288,1.288,0,0,0-.821.055,6.919,6.919,0,0,0-.669.28,7.4,7.4,0,0,0-1.824,1.216,5.486,5.486,0,0,0-.419.413c-.085.1-.128.158-.122.164s.213-.182.608-.5a8.452,8.452,0,0,1,1.824-1.106,2.244,2.244,0,0,1,1.343-.3.474.474,0,0,1,.353.5.8.8,0,0,1-.413.608,6.45,6.45,0,0,1-1.733.578,2.432,2.432,0,0,1-1.86-.146,3.161,3.161,0,0,1-1.106-1.55,4.535,4.535,0,0,1-.3-1.781.705.705,0,0,1,.334-.608.535.535,0,0,1,.608.225,2.1,2.1,0,0,1,.371.608,4.258,4.258,0,0,1,.231.657,4.759,4.759,0,0,1,.055,2.1A4.034,4.034,0,0,1,319.93,435.409Z" transform="translate(-231.688 -225.082)" fill="#e0e0e0"/>
        <path id="패스_752" data-name="패스 752" d="M302.528,435.92c-.061.073,1.052,1.027,2.249,2.346.3.328.547.663.809.973a1.824,1.824,0,0,0,.881.608,1.015,1.015,0,0,0,.736-.055c.158-.091.207-.182.195-.188a1.113,1.113,0,0,1-.869.055,1.721,1.721,0,0,1-.748-.608c-.231-.3-.492-.657-.8-.991a15.41,15.41,0,0,0-1.672-1.6A3.41,3.41,0,0,0,302.528,435.92Z" transform="translate(-225.514 -227.095)" fill="#e0e0e0"/>
        <path id="패스_753" data-name="패스 753" d="M194.059,440.971l-.553.742s8.675,14.468,7.015,16.936L175.84,439.737l6.632-7.957A17.789,17.789,0,0,0,194.059,440.971Z" transform="translate(-175.84 -225.471)" fill="#ff615b"/>
        <path id="패스_754" data-name="패스 754" d="M175.84,443.635l1.6-1.915L200.5,460.565s.736,1.319,0,2Z" transform="translate(-175.84 -229.369)" fill="#e0e0e0"/>
        <path id="패스_755" data-name="패스 755" d="M202.871,447.754c-.091.116-.736-.292-1.629-.359s-1.593.2-1.666.067.638-.693,1.714-.608S202.957,447.663,202.871,447.754Z" transform="translate(-185.145 -231.379)" fill="#e0e0e0"/>
        <path id="패스_756" data-name="패스 756" d="M205.923,453.079c-.061.14-.742-.055-1.538.14s-1.331.644-1.447.547.328-.839,1.325-1.064S206.008,452.964,205.923,453.079Z" transform="translate(-186.458 -233.652)" fill="#e0e0e0"/>
        <path id="패스_757" data-name="패스 757" d="M206.352,459.352c-.128-.055.17-.79.985-1.216s1.581-.255,1.55-.116-.644.225-1.307.608S206.485,459.431,206.352,459.352Z" transform="translate(-187.793 -235.7)" fill="#e0e0e0"/>
        <path id="패스_758" data-name="패스 758" d="M204.716,445.367a1.247,1.247,0,0,0,.146-.146,3.556,3.556,0,0,0,.328-.492,4.553,4.553,0,0,0,.578-2.085,5.954,5.954,0,0,0-.036-.723,2.365,2.365,0,0,0-.213-.778.961.961,0,0,0-.274-.359.645.645,0,0,0-.48-.146.924.924,0,0,0-.687.669,4.716,4.716,0,0,0-.195,1.921,3.38,3.38,0,0,0,.742,1.939,2.024,2.024,0,0,0,.936.553,4.522,4.522,0,0,0,1.009.14,6.505,6.505,0,0,0,1.921-.146,1.051,1.051,0,0,0,.705-.644.687.687,0,0,0,0-.492.766.766,0,0,0-.31-.353,1.326,1.326,0,0,0-.815-.152,6.364,6.364,0,0,0-.717.1,7.293,7.293,0,0,0-2.043.705,5.51,5.51,0,0,0-.511.292c-.109.079-.164.122-.158.128a7.635,7.635,0,0,0,.717-.322,8.066,8.066,0,0,1,2.03-.608,2.206,2.206,0,0,1,1.374.055.468.468,0,0,1,.213.571.808.808,0,0,1-.553.48,6.583,6.583,0,0,1-1.824.122,2.468,2.468,0,0,1-1.763-.608,3.155,3.155,0,0,1-.675-1.781,4.505,4.505,0,0,1,.164-1.824c.091-.255.261-.492.48-.517a.547.547,0,0,1,.523.365,2.3,2.3,0,0,1,.2.705,4.536,4.536,0,0,1,.049.693,4.62,4.62,0,0,1-.474,2.036C204.874,445.112,204.7,445.355,204.716,445.367Z" transform="translate(-186.826 -228.943)" fill="#e0e0e0"/>
        <path id="패스_759" data-name="패스 759" d="M188,441.35c-.085.055.754,1.258,1.581,2.839.207.4.359.784.535,1.143a1.823,1.823,0,0,0,.693.833.991.991,0,0,0,.723.128c.176-.043.243-.122.237-.134a1.094,1.094,0,0,1-.857-.158,1.853,1.853,0,0,1-.571-.778c-.146-.346-.3-.76-.517-1.161a14.669,14.669,0,0,0-1.216-1.97A3.407,3.407,0,0,0,188,441.35Z" transform="translate(-180.604 -229.224)" fill="#e0e0e0"/>
      </g>
    </g>
    <path id="Icon_ionic-ios-pin" data-name="Icon ionic-ios-pin" d="M19.875,3.375c-6.625,0-12,4.9-12,10.927,0,8.5,12,23.073,12,23.073s12-14.573,12-23.073C31.875,8.271,26.5,3.375,19.875,3.375Zm0,15.6a3.834,3.834,0,1,1,3.908-3.833A3.872,3.872,0,0,1,19.875,18.977Z" transform="translate(1299.125 297.625)" fill="#ff615b"/>
  </g>
</svg>
